<svg width="62" height="62" viewBox="0 0 62 62" fill="none" xmlns="http://www.w3.org/2000/svg">
<g clip-path="url(#clip0_83_6)">
<path d="M62 31C62 13.8793 48.1207 0 31 0C13.8793 0 0 13.8793 0 31C0 46.4729 11.3363 59.2979 26.1562 61.6234V39.9609H18.2852V31H26.1562V24.1703C26.1562 16.4009 30.7845 12.1094 37.8655 12.1094C41.2571 12.1094 44.8047 12.7148 44.8047 12.7148V20.3438H40.8958C37.0448 20.3438 35.8438 22.7334 35.8438 25.1851V31H44.4414L43.067 39.9609H35.8438V61.6234C50.6637 59.2979 62 46.4731 62 31Z" fill="#1877F2"/>
<path d="M43.067 39.9609L44.4414 31H35.8438V25.1851C35.8438 22.7332 37.0448 20.3438 40.8958 20.3438H44.8047V12.7148C44.8047 12.7148 41.2571 12.1094 37.8653 12.1094C30.7845 12.1094 26.1562 16.4009 26.1562 24.1703V31H18.2852V39.9609H26.1562V61.6234C27.7586 61.8745 29.3781 62.0004 31 62C32.6219 62.0004 34.2414 61.8745 35.8438 61.6234V39.9609H43.067Z" fill="white"/>
</g>
<defs>
<clipPath id="clip0_83_6">
<rect width="62" height="62" fill="white"/>
</clipPath>
</defs>
</svg>
