<svg width="42" height="30" viewBox="0 0 42 30" fill="none" xmlns="http://www.w3.org/2000/svg">
<path d="M7 10.3679C7 10.3679 1.857 12.0712 1 18.0327M35 10.3679C35 10.3679 40.143 12.0712 41 18.0327M15 10.3679C15 10.3679 19.8 11.3618 21 16.3294C22.2 11.3618 27 10.3679 27 10.3679M17 23.1425C17 23.1425 12.8 23.7813 11 28.2524M25 23.1425C25 23.1425 29.2 23.7813 31 28.2524" stroke="#70A15F" stroke-width="2" stroke-linecap="round"/>
<path d="M21 24.846C23.7614 24.846 26 22.9395 26 20.5878C26 18.2361 23.7614 16.3296 21 16.3296C18.2386 16.3296 16 18.2361 16 20.5878C16 22.9395 18.2386 24.846 21 24.846Z" stroke="#70A15F" stroke-width="2" stroke-linecap="round" stroke-linejoin="round"/>
<path d="M31 11.2197C34.3137 11.2197 37 8.93194 37 6.10985C37 3.28776 34.3137 1 31 1C27.6863 1 25 3.28776 25 6.10985C25 8.93194 27.6863 11.2197 31 11.2197Z" stroke="#70A15F" stroke-width="2" stroke-linecap="round" stroke-linejoin="round"/>
<path d="M11 11.2197C14.3137 11.2197 17 8.93194 17 6.10985C17 3.28776 14.3137 1 11 1C7.68629 1 5 3.28776 5 6.10985C5 8.93194 7.68629 11.2197 11 11.2197Z" stroke="#70A15F" stroke-width="2" stroke-linecap="round" stroke-linejoin="round"/>
</svg>
