<svg width="35" height="35" viewBox="0 0 35 35" fill="none" xmlns="http://www.w3.org/2000/svg">
<path d="M21.875 1.09375C21.875 3.13314 22.251 5.01302 23.0029 6.7334C23.7549 8.45378 24.8372 10.0374 26.25 11.4844C27.6628 12.9313 28.7451 14.515 29.4971 16.2354C30.249 17.9557 30.625 19.8356 30.625 21.875C30.625 23.0827 30.4712 24.2448 30.1636 25.3613C29.856 26.4779 29.4116 27.5203 28.8306 28.4888C28.2495 29.4572 27.5659 30.3459 26.7798 31.1548C25.9937 31.9637 25.1107 32.6473 24.1309 33.2056C23.151 33.7638 22.1029 34.2025 20.9863 34.5215C19.8698 34.8405 18.7077 35 17.5 35C16.2923 35 15.1302 34.8462 14.0137 34.5386C12.8971 34.231 11.8547 33.7866 10.8862 33.2056C9.91781 32.6245 9.02913 31.9409 8.22021 31.1548C7.4113 30.3687 6.7277 29.4857 6.16943 28.5059C5.61117 27.526 5.17253 26.4779 4.85352 25.3613C4.53451 24.2448 4.375 23.0827 4.375 21.875C4.375 20.918 4.47754 19.978 4.68262 19.0552C4.8877 18.1323 5.18392 17.2493 5.57129 16.4062C5.95866 15.5632 6.43717 14.7599 7.00684 13.9966C7.5765 13.2332 8.22021 12.5439 8.93799 11.9287C9.01774 12.3617 9.12598 12.806 9.2627 13.2617C9.39941 13.7174 9.55892 14.1732 9.74121 14.6289C9.9235 15.0846 10.14 15.5176 10.3906 15.9277C10.6413 16.3379 10.9033 16.7196 11.1768 17.0728C11.4046 17.3576 11.7008 17.5 12.0654 17.5C12.373 17.5 12.6294 17.3918 12.8345 17.1753C13.0396 16.9588 13.1478 16.6968 13.1592 16.3892C13.1592 16.2638 13.1421 16.1499 13.1079 16.0474C13.0737 15.9448 13.0168 15.8423 12.937 15.7397C12.618 15.2726 12.3389 14.8112 12.0996 14.3555C11.8604 13.8997 11.6496 13.4326 11.4673 12.9541C11.285 12.4756 11.154 11.98 11.0742 11.4673C10.9945 10.9546 10.9489 10.4134 10.9375 9.84375C10.9375 8.48796 11.1938 7.21191 11.7065 6.01562C12.2192 4.81934 12.9256 3.77686 13.8257 2.88818C14.7257 1.99951 15.7682 1.29883 16.9531 0.786133C18.138 0.273438 19.4141 0.0113932 20.7812 0H21.875V1.09375ZM17.5 32.8125C19.0153 32.8125 20.4338 32.5277 21.7554 31.958C23.077 31.3883 24.2391 30.6079 25.2417 29.6167C26.2443 28.6255 27.0247 27.4691 27.583 26.1475C28.1413 24.8258 28.4261 23.4017 28.4375 21.875C28.4375 20.1546 28.1185 18.5539 27.4805 17.0728C26.8424 15.5916 25.9196 14.2472 24.7119 13.0396C23.2308 11.547 22.0687 9.90072 21.2256 8.10059C20.3825 6.30046 19.8812 4.35221 19.7217 2.25586C18.776 2.38118 17.9045 2.66602 17.1069 3.11035C16.3094 3.55469 15.6087 4.11865 15.0049 4.80225C14.401 5.48584 13.9396 6.25488 13.6206 7.10938C13.3016 7.96387 13.1364 8.87533 13.125 9.84375C13.125 10.7324 13.256 11.5356 13.5181 12.2534C13.7801 12.9712 14.1675 13.689 14.6802 14.4067C14.8966 14.703 15.0618 15.0106 15.1758 15.3296C15.2897 15.6486 15.3524 16.0018 15.3638 16.3892C15.3638 16.8449 15.2783 17.2721 15.1074 17.6709C14.9365 18.0697 14.6973 18.4172 14.3896 18.7134C14.082 19.0096 13.7345 19.2489 13.3472 19.4312C12.9598 19.6134 12.5326 19.6989 12.0654 19.6875C11.5413 19.6875 11.0799 19.5907 10.6812 19.397C10.2824 19.2033 9.9292 18.9412 9.62158 18.6108C9.31396 18.2804 9.04053 17.9102 8.80127 17.5C8.56201 17.0898 8.33415 16.6797 8.11768 16.2695C7.59359 17.1012 7.20622 17.9956 6.95557 18.9526C6.70492 19.9097 6.57389 20.8838 6.5625 21.875C6.5625 23.3903 6.84733 24.8088 7.41699 26.1304C7.98665 27.452 8.76709 28.6141 9.7583 29.6167C10.7495 30.6193 11.9059 31.3997 13.2275 31.958C14.5492 32.5163 15.9733 32.8011 17.5 32.8125Z" fill="#70A15F"/>
</svg>
