<svg width="64" height="64" viewBox="0 0 64 64" fill="none" xmlns="http://www.w3.org/2000/svg">
<path d="M49 64H15C6.71573 64 0 57.2843 0 49V15C0 6.71573 6.71573 0 15 0H49C57.2843 0 64 6.71573 64 15V49C64 57.2843 57.2843 64 49 64Z" fill="url(#paint0_radial_83_11)"/>
<path d="M49 64H15C6.71573 64 0 57.2843 0 49V15C0 6.71573 6.71573 0 15 0H49C57.2843 0 64 6.71573 64 15V49C64 57.2843 57.2843 64 49 64Z" fill="url(#paint1_radial_83_11)"/>
<path d="M32.0023 57C25.2127 57 24.3605 56.9702 21.694 56.849C19.0325 56.727 17.2157 56.3058 15.6263 55.6875C13.9818 55.049 12.587 54.1948 11.1975 52.8048C9.80675 51.415 8.9525 50.0203 8.312 48.3765C7.692 46.7865 7.27025 44.969 7.1505 42.3088C7.03125 39.642 7 38.7895 7 31.9997C7 25.21 7.03 24.3605 7.151 21.694C7.2735 19.0325 7.69475 17.2158 8.3125 15.6263C8.9515 13.9818 9.80575 12.587 11.1958 11.1975C12.585 9.80675 13.9798 8.9505 15.623 8.312C17.2137 7.69375 19.0307 7.2725 21.6917 7.1505C24.3585 7.02925 25.21 6.9995 31.9993 6.9995C38.7895 6.9995 39.639 7.02925 42.3055 7.1505C44.967 7.2725 46.7857 7.69375 48.3765 8.312C50.0202 8.9505 51.413 9.80675 52.802 11.1975C54.1927 12.587 55.0467 13.9818 55.6875 15.6255C56.302 17.2158 56.724 19.033 56.849 21.6935C56.9688 24.36 57 25.21 57 31.9997C57 38.7895 56.9688 39.6415 56.849 42.3083C56.724 44.9698 56.302 46.7862 55.6875 48.3757C55.0467 50.0202 54.1927 51.415 52.802 52.8048C51.4115 54.1953 50.0208 55.0495 48.375 55.6873C46.7812 56.3058 44.9635 56.7272 42.302 56.849C39.6352 56.9702 38.7862 57 31.9945 57H32.0023ZM29.7595 52.4948C30.4253 52.4957 31.168 52.4948 32.0023 52.4948C38.6775 52.4948 39.4685 52.4707 42.1045 52.351C44.542 52.2395 45.865 51.8322 46.7463 51.49C47.913 51.037 48.7448 50.4952 49.6193 49.62C50.4943 48.745 51.0358 47.9118 51.49 46.745C51.8323 45.865 52.24 44.542 52.351 42.1045C52.4708 39.469 52.4967 38.6775 52.4967 32.0055C52.4967 25.3335 52.4708 24.5418 52.351 21.9065C52.2395 19.469 51.8323 18.146 51.49 17.2658C51.037 16.099 50.4943 15.2682 49.6193 14.3937C48.7443 13.5187 47.9135 12.9772 46.7463 12.524C45.866 12.1802 44.542 11.774 42.1045 11.6625C39.469 11.5427 38.6775 11.5168 32.0023 11.5168C25.3268 11.5168 24.5355 11.5427 21.9002 11.6625C19.4627 11.775 18.1397 12.1823 17.2577 12.5245C16.0912 12.9778 15.2577 13.5192 14.3827 14.3942C13.5077 15.2692 12.9662 16.1005 12.512 17.2677C12.1698 18.148 11.762 19.471 11.651 21.9085C11.5312 24.544 11.5072 25.3355 11.5072 32.0117C11.5072 38.688 11.5312 39.4753 11.651 42.1108C11.7625 44.5483 12.1698 45.8713 12.512 46.7525C12.9653 47.9193 13.5078 48.7525 14.383 49.6275C15.2583 50.5025 16.0912 51.0443 17.258 51.4983C18.1392 51.842 19.4627 52.2483 21.9002 52.3603C24.2065 52.4645 25.1003 52.4958 29.7595 52.501V52.4948ZM45.3473 48.3438C43.691 48.3438 42.3473 47.0012 42.3473 45.3447C42.3473 43.6885 43.691 42.3447 45.3473 42.3447C47.0035 42.3447 48.3473 43.6885 48.3473 45.3447C48.3473 47.001 47.0035 48.3448 45.3473 48.3448V48.3438ZM32.0023 44.8385C24.9123 44.8385 19.1637 39.09 19.1637 31.9997C19.1637 24.9095 24.9123 19.1637 32.0023 19.1637C39.0925 19.1637 44.839 24.9095 44.839 31.9997C44.839 39.0897 39.092 44.8385 32.0018 44.8385H32.0023ZM32.0023 40.3333C36.6045 40.3333 40.3358 36.6025 40.3358 31.9997C40.3358 27.3975 36.6045 23.6662 32.0023 23.6662C27.4 23.6662 23.669 27.3975 23.669 31.9997C23.669 36.6025 27.3997 40.3333 32.0023 40.3333Z" fill="white"/>
<defs>
<radialGradient id="paint0_radial_83_11" cx="0" cy="0" r="1" gradientUnits="userSpaceOnUse" gradientTransform="translate(17 -4.92925) rotate(90) scale(63.4288 58.9938)">
<stop stop-color="#FFDD55"/>
<stop offset="0.1" stop-color="#FFDD55"/>
<stop offset="0.5" stop-color="#FF543E"/>
<stop offset="1" stop-color="#C837AB"/>
</radialGradient>
<radialGradient id="paint1_radial_83_11" cx="0" cy="0" r="1" gradientUnits="userSpaceOnUse" gradientTransform="translate(-10.7202 59.3898) rotate(-78.681) scale(28.353 116.872)">
<stop stop-color="#3771C8"/>
<stop offset="0.128" stop-color="#3771C8"/>
<stop offset="1" stop-color="#6600FF" stop-opacity="0"/>
</radialGradient>
</defs>
</svg>
