<svg width="54" height="62" viewBox="0 0 54 62" fill="none" xmlns="http://www.w3.org/2000/svg">
<g clip-path="url(#clip0_83_17)">
<path d="M40.019 22.3246C43.9589 25.1776 48.7856 26.8563 53.9985 26.8563V16.6948C53.0118 16.6951 52.0278 16.5908 51.0626 16.3835V24.3821C45.8502 24.3821 41.0241 22.7036 37.0834 19.8508V40.5878C37.0834 50.9617 28.7817 59.3706 18.542 59.3706C14.7213 59.3706 11.1699 58.2005 8.21997 56.1937C11.587 59.6813 16.2824 61.8446 21.477 61.8446C31.7176 61.8446 40.0194 53.4357 40.0194 43.0614V22.3246H40.019ZM43.6408 12.0728C41.6272 9.84439 40.305 6.9646 40.019 3.78079V2.47388H37.237C37.9373 6.52034 40.3261 9.97737 43.6408 12.0728ZM14.6966 48.2333C13.5715 46.7393 12.9634 44.9112 12.9663 43.0317C12.9663 38.2872 16.7634 34.4402 21.4481 34.4402C22.321 34.4397 23.1888 34.5755 24.0209 34.8428V24.4539C23.0485 24.319 22.0672 24.2615 21.0863 24.2827V32.3688C20.2538 32.1014 19.3856 31.9657 18.5122 31.9664C13.8277 31.9664 10.0309 35.813 10.0309 40.5581C10.0309 43.9134 11.9287 46.8182 14.6966 48.2333Z" fill="#FF004F"/>
<path d="M37.0835 19.8506C41.0244 22.7034 45.8501 24.3819 51.0627 24.3819V16.3833C48.1531 15.7553 45.5773 14.2152 43.6407 12.0728C40.3258 9.97716 37.9374 6.52013 37.2371 2.47388H29.9296V43.061C29.9129 47.7927 26.1223 51.6238 21.4478 51.6238C18.6933 51.6238 16.246 50.2938 14.6963 48.2331C11.9288 46.8182 10.0308 43.9132 10.0308 40.5583C10.0308 35.8136 13.8276 31.9666 18.5121 31.9666C19.4097 31.9666 20.2747 32.1082 21.0862 32.369V24.2829C11.0262 24.4935 2.93567 32.8203 2.93567 43.0612C2.93567 48.1734 4.95033 52.8078 8.22029 56.1941C11.1702 58.2005 14.7214 59.3711 18.5423 59.3711C28.7823 59.3711 37.0837 50.9615 37.0837 40.5878L37.0835 19.8506Z" fill="black"/>
<path d="M51.0627 16.383V14.2207C48.4389 14.2245 45.8669 13.4802 43.6407 12.0727C45.6112 14.2581 48.206 15.7652 51.0627 16.3834M37.2368 2.47359C37.1701 2.08696 37.1189 1.69775 37.0832 1.30692V0H26.9932V40.5876C26.9772 45.3188 23.1867 49.15 18.5119 49.15C17.1866 49.152 15.8795 48.838 14.696 48.2334C16.2458 50.2938 18.6931 51.6236 21.4475 51.6236C26.1219 51.6236 29.9128 47.7928 29.9293 43.0611V2.4738L37.2368 2.47359ZM21.0866 24.2826V21.9803C20.2434 21.8636 19.3934 21.8052 18.5425 21.8054C8.30145 21.8054 0 30.2147 0 40.5876C0 47.0909 3.26257 52.8223 8.22045 56.1936C4.95049 52.8075 2.93583 48.1729 2.93583 43.0609C2.93583 32.8202 11.0261 24.4932 21.0866 24.2826Z" fill="#00F2EA"/>
</g>
<defs>
<clipPath id="clip0_83_17">
<rect width="54" height="62" fill="white"/>
</clipPath>
</defs>
</svg>
