<svg width="50" height="58" viewBox="0 0 50 58" fill="none" xmlns="http://www.w3.org/2000/svg">
<path d="M35.0835 17.8506C39.0244 20.7034 43.8501 22.3819 49.0627 22.3819V14.3833C46.1531 13.7553 43.5773 12.2152 41.6407 10.0728C38.3258 7.97716 35.9374 4.52013 35.2371 0.473877H27.9296V41.061C27.9129 45.7927 24.1223 49.6238 19.4478 49.6238C16.6933 49.6238 14.246 48.2938 12.6963 46.2331C9.92878 44.8182 8.03076 41.9132 8.03076 38.5583C8.03076 33.8136 11.8276 29.9666 16.5121 29.9666C17.4097 29.9666 18.2747 30.1082 19.0862 30.369V22.2829C9.02618 22.4935 0.935669 30.8203 0.935669 41.0612C0.935669 46.1734 2.95033 50.8078 6.22029 54.1941C9.17025 56.2005 12.7214 57.3711 16.5423 57.3711C26.7823 57.3711 35.0837 48.9615 35.0837 38.5878L35.0835 17.8506Z" fill="black"/>
</svg>
