<svg width="70" height="70" viewBox="0 0 70 70" fill="none" xmlns="http://www.w3.org/2000/svg">
<path d="M0 35.0005C0 49.3325 8.6182 61.6448 20.9505 67.0581C20.8521 64.6141 20.933 61.6801 21.5597 59.0209C22.2327 56.1797 26.0632 39.9492 26.0632 39.9492C26.0632 39.9492 24.9452 37.7144 24.9452 34.4116C24.9452 29.2247 27.9513 25.3509 31.6952 25.3509C34.8789 25.3509 36.417 27.7422 36.417 30.6056C36.417 33.8059 34.3757 38.593 33.326 43.0268C32.4491 46.7395 35.1876 49.7678 38.8503 49.7678C45.4817 49.7678 49.948 41.2505 49.948 31.159C49.948 23.488 44.7814 17.7464 35.3842 17.7464C24.7671 17.7464 18.153 25.664 18.153 34.5081C18.153 37.5575 19.052 39.7078 20.4602 41.373C21.1077 42.1378 21.1977 42.4454 20.9634 43.3237C20.7955 43.9677 20.4099 45.5181 20.2502 46.1325C20.0173 47.019 19.2989 47.3359 18.4978 47.0086C13.6076 45.0122 11.3302 39.6569 11.3302 33.6369C11.3302 23.6945 19.7154 11.7726 36.3448 11.7726C49.7077 11.7726 58.5028 21.4424 58.5028 31.8224C58.5028 45.5525 50.8695 55.81 39.6175 55.81C35.8389 55.81 32.2845 53.7674 31.0669 51.4473C31.0669 51.4473 29.035 59.5115 28.6046 61.0687C27.8625 63.7673 26.41 66.4645 25.0819 68.5667C28.3023 69.5189 31.6431 70.0022 35.0014 70.0019C54.329 70.0019 70.0003 54.3315 70.0003 35.0005C70.0003 15.6704 54.329 0 35.0014 0C15.6718 0 0 15.6704 0 35.0005Z" fill="#CB1F27"/>
</svg>
