<svg width="40" height="40" viewBox="0 0 40 40" fill="none" xmlns="http://www.w3.org/2000/svg">
<path d="M16.6667 15.4249C12.6767 13.2633 8.46667 9.52492 5 3.33325M19.36 7.36492C15.9667 5.13992 11.8283 6.06992 10.115 9.44325C8.40167 12.8166 9.76333 17.3549 13.155 19.5816C16.225 21.5966 22.945 23.6799 28.3333 17.9083C23.2833 15.7583 22.75 9.59159 19.36 7.36492Z" stroke="#70A15F" stroke-width="2" stroke-linecap="round" stroke-linejoin="round"/>
<path d="M6.66667 18.3333C5.6 19.1166 5 20.0083 5 20.9533C5 24.1083 11.7167 26.6666 20 26.6666C28.2833 26.6666 35 24.1083 35 20.9533C35 20.0083 34.4 19.1183 33.3333 18.3333" stroke="#70A15F" stroke-width="2" stroke-linecap="round" stroke-linejoin="round"/>
<path d="M35 21.6665C35 27.6282 30.8233 32.8582 26.325 35.8032C25.4 36.4098 24.3 36.6665 23.195 36.6665H16.805C15.7 36.6665 14.6 36.4098 13.675 35.8032C9.17667 32.8582 5 27.6282 5 21.6665" stroke="#70A15F" stroke-width="2" stroke-linecap="round" stroke-linejoin="round"/>
</svg>
