<?xml version="1.0" encoding="UTF-8"?>
<svg version="1.1" xmlns="http://www.w3.org/2000/svg" width="212" height="328">
<path d="M0 0 C1.84860626 -0.00639748 1.84860626 -0.00639748 3.73455811 -0.01292419 C5.10780338 -0.01257465 6.48104862 -0.0121131 7.85429382 -0.0115509 C9.29473457 -0.01454177 10.73517452 -0.01794413 12.1756134 -0.02172852 C16.09513145 -0.03058138 20.01462767 -0.0329072 23.93415475 -0.0335443 C27.20447814 -0.03449269 30.47479642 -0.0381703 33.74511784 -0.0417164 C41.46136272 -0.04986631 49.17759592 -0.05230019 56.8938446 -0.05158997 C64.85542501 -0.05098944 72.81693761 -0.06153504 80.77850085 -0.07733363 C87.61083779 -0.09040868 94.44315256 -0.09577386 101.27550191 -0.09513456 C105.35740139 -0.0948795 109.43924067 -0.09773461 113.5211277 -0.10831261 C117.36161776 -0.11799267 121.20199007 -0.11807341 125.04248428 -0.11079597 C126.45137517 -0.10974993 127.86027337 -0.11211424 129.26915169 -0.11815643 C131.19406803 -0.12587628 133.11902448 -0.1200322 135.04394531 -0.11352539 C136.65917823 -0.11434254 136.65917823 -0.11434254 138.30704212 -0.1151762 C143.50995129 0.33052629 146.97663895 2.46488702 151.02494812 5.63371277 C151.81514343 6.24215027 152.60533875 6.85058777 153.41947937 7.47746277 C154.01115906 8.02402527 154.60283875 8.57058777 155.21244812 9.13371277 C155.21244812 9.79371277 155.21244812 10.45371277 155.21244812 11.13371277 C152.92212501 11.9709066 150.63033855 12.80360566 148.33744812 13.63371277 C147.36098328 13.99142761 147.36098328 13.99142761 146.36479187 14.35636902 C141.43901062 16.13371277 141.43901062 16.13371277 139.21244812 16.13371277 C138.96494812 16.66996277 138.71744812 17.20621277 138.46244812 17.75871277 C137.21244812 20.13371277 137.21244812 20.13371277 135.16947937 22.84074402 C131.73379024 28.62175387 132.46358302 34.61342185 133.21244812 41.13371277 C134.46950154 45.67765175 136.24301307 49.85676527 138.21244812 54.13371277 C145.07522986 69.59998183 150.44180848 88.2863213 144.23979187 104.97746277 C140.19474133 113.46745477 134.38100597 119.14102508 127.21244812 125.13371277 C128.33515218 127.25995118 129.46045239 129.38474906 130.58744812 131.50871277 C130.93670349 132.16903503 131.28595886 132.8293573 131.64579773 133.50968933 C133.70761831 137.38556965 135.82114435 141.22379095 138.00541687 145.03215027 C138.46577332 145.83990906 138.92612976 146.64766785 139.4004364 147.47990417 C140.30837402 149.06774677 141.22458487 150.6508905 142.14945984 152.22892761 C142.56341003 152.95547546 142.97736023 153.68202332 143.40385437 154.43058777 C143.77711853 155.07350769 144.15038269 155.71642761 144.53495789 156.37882996 C145.21244812 158.13371277 145.21244812 158.13371277 144.21244812 161.13371277 C139.13495828 161.58526819 135.44115592 161.90466668 131.02494812 159.13371277 C130.05433577 158.16581922 129.11861077 157.1621949 128.21244812 156.13371277 C127.67233093 155.54074402 127.13221375 154.94777527 126.57572937 154.33683777 C125.39883199 153.01448116 124.23769218 151.6779597 123.09135437 150.32902527 C120.37574498 147.15610951 117.54067098 144.0927259 114.71635437 141.01652527 C113.21244812 139.13371277 113.21244812 139.13371277 113.21244812 137.13371277 C112.22244812 136.80371277 111.23244812 136.47371277 110.21244812 136.13371277 C109.88244812 135.47371277 109.55244812 134.81371277 109.21244812 134.13371277 C105.58244812 134.46371277 101.95244812 134.79371277 98.21244812 135.13371277 C98.43932312 136.51558777 98.66619812 137.89746277 98.89994812 139.32121277 C99.39935771 143.7132807 98.67770277 145.43583079 96.21244812 149.13371277 C95.30761248 153.00610257 94.93459473 156.3001526 96.21244812 160.13371277 C95.27494812 162.82121277 95.27494812 162.82121277 94.21244812 165.13371277 C87.94824392 164.75603726 82.17180839 163.88297369 76.08744812 162.32121277 C68.37392665 160.66323988 62.46658708 161.9648042 54.98979187 164.15324402 C51.52437375 165.05274758 48.76494596 165.32768691 45.21244812 165.13371277 C43.58744812 161.82121277 43.58744812 161.82121277 42.21244812 158.13371277 C42.87244812 157.14371277 43.53244812 156.15371277 44.21244812 155.13371277 C42.77673763 152.19392462 41.3897387 149.38979916 39.52494812 146.69621277 C37.81318225 143.35419368 37.93282908 140.83866501 38.21244812 137.13371277 C38.54244812 136.47371277 38.87244812 135.81371277 39.21244812 135.13371277 C35.58244812 134.80371277 31.95244812 134.47371277 28.21244812 134.13371277 C27.55244812 135.12371277 26.89244812 136.11371277 26.21244812 137.13371277 C25.55244812 137.13371277 24.89244812 137.13371277 24.21244812 137.13371277 C24.00233093 137.66222839 23.79221375 138.19074402 23.57572937 138.73527527 C21.65407156 142.11607154 19.07236419 144.7038069 16.39994812 147.50871277 C15.35031908 148.61932149 14.30212976 149.73129274 13.25541687 150.84465027 C12.74543152 151.38702332 12.23544617 151.92939636 11.71000671 152.48820496 C10.23186576 154.11237679 8.83632605 155.78188118 7.45072937 157.48527527 C5.21244812 160.13371277 5.21244812 160.13371277 3.21244812 161.13371277 C1.71487941 161.2287078 0.2130188 161.26358475 -1.28755188 161.25871277 C-2.08161438 161.26129089 -2.87567688 161.26386902 -3.69380188 161.26652527 C-5.78755188 161.13371277 -5.78755188 161.13371277 -7.78755188 160.13371277 C-7.19892391 156.03052015 -5.85170308 153.15325278 -3.73286438 149.60636902 C-3.11798157 148.56674011 -2.50309875 147.52711121 -1.86958313 146.45597839 C-1.22376282 145.38025574 -0.5779425 144.30453308 0.08744812 143.19621277 C1.35732409 141.06307768 2.62560457 138.92899182 3.89213562 136.79386902 C4.73880798 135.38053284 4.73880798 135.38053284 5.60258484 133.93864441 C7.25775856 131.05476651 8.75342507 128.12093431 10.21244812 125.13371277 C9.46479187 124.49304871 8.71713562 123.85238464 7.94682312 123.19230652 C-1.87464389 114.56638457 -1.87464389 114.56638457 -4.78755188 108.13371277 C-5.34442688 106.93746277 -5.90130188 105.74121277 -6.47505188 104.50871277 C-12.6462711 88.63986333 -8.14260746 70.6613554 -1.72505188 55.63371277 C-0.43260723 52.72816632 0.87017064 49.83608143 2.26322937 46.97746277 C5.04887975 40.74605528 5.00483282 33.83014036 4.21244812 27.13371277 C3.27631894 25.10303255 2.2867766 23.09478857 1.21244812 21.13371277 C1.21244812 20.47371277 1.21244812 19.81371277 1.21244812 19.13371277 C0.55244812 19.13371277 -0.10755188 19.13371277 -0.78755188 19.13371277 C-1.17942688 18.70058777 -1.57130188 18.26746277 -1.97505188 17.82121277 C-6.18958291 13.89733905 -12.33876305 12.57930981 -17.78755188 11.13371277 C-16.37345765 7.7384136 -14.7639896 6.0745846 -11.78755188 3.94621277 C-10.73567688 3.18244324 -10.73567688 3.18244324 -9.66255188 2.40324402 C-6.24088041 0.08648729 -4.12600474 0.006428 0 0 Z M88.21244812 156.13371277 C89.86244812 156.13371277 91.51244812 156.13371277 93.21244812 156.13371277 C93.54244812 155.47371277 93.87244812 154.81371277 94.21244812 154.13371277 C91.02754805 153.85636267 91.02754805 153.85636267 88.21244812 156.13371277 Z M47.21244812 154.13371277 C46.55244812 154.79371277 45.89244812 155.45371277 45.21244812 156.13371277 C46.86244812 156.13371277 48.51244812 156.13371277 50.21244812 156.13371277 C49.22244812 155.47371277 48.23244812 154.81371277 47.21244812 154.13371277 Z " fill="#351F17" transform="translate(39.78755187988281,162.8662872314453)"/>
<path d="M0 0 C0.9437125 16.77711103 -2.87648778 31.2129672 -12.1875 45.3125 C-22.16832253 54.84973042 -31.05115663 57.28327705 -44.4375 57.0703125 C-45.7059375 57.03550781 -45.7059375 57.03550781 -47 57 C-47.495 55.515 -47.495 55.515 -48 54 C-46.734375 51.9765625 -46.734375 51.9765625 -44.75 49.625 C-44.01652344 48.74457031 -43.28304687 47.86414063 -42.52734375 46.95703125 C-41.69332031 45.98121094 -40.85929687 45.00539062 -40 44 C-38.5832639 42.33604821 -37.16758866 40.67119924 -35.75219727 39.00610352 C-34.79665571 37.88204183 -33.84012093 36.75882367 -32.88256836 35.63647461 C-29.6982682 31.8853769 -26.74987867 28.0774063 -24 24 C-28.53921917 27.31662145 -32.96294603 30.75036529 -37.3125 34.3125 C-38.23675781 35.06917969 -39.16101563 35.82585937 -40.11328125 36.60546875 C-42.106642 38.25896015 -44.08095926 39.92375564 -46.04296875 41.61328125 C-47.01878906 42.44214844 -47.99460937 43.27101562 -49 44.125 C-49.886875 44.89070313 -50.77375 45.65640625 -51.6875 46.4453125 C-52.450625 46.95835937 -53.21375 47.47140625 -54 48 C-54.99 47.67 -55.98 47.34 -57 47 C-59.09839209 38.84797317 -56.96667312 29.49584625 -53.24609375 22.0546875 C-46.03261157 10.16035639 -34.54380864 4.98826139 -21.57421875 1.3125 C-14.42965913 -0.3713242 -7.30265649 -0.18940608 0 0 Z " fill="#80CB2A" transform="translate(161,98)"/>
<path d="M0 0 C0.66 0.33 1.32 0.66 2 1 C2.6328125 3.28515625 2.6328125 3.28515625 3.125 6.0625 C3.37636719 7.44115234 3.37636719 7.44115234 3.6328125 8.84765625 C3.75398438 9.55792969 3.87515625 10.26820313 4 11 C4.66 11 5.32 11 6 11 C6.93324464 12.34802003 7.85525183 13.70489389 8.7265625 15.09375 C10.21454419 17.32115817 11.87460469 19.35789903 13.5625 21.4375 C17.34683408 26.25097847 19.78664651 30.93323253 21 37 C22.32 37.33 23.64 37.66 25 38 C24.34 38 23.68 38 23 38 C23.10699219 38.59167969 23.21398437 39.18335938 23.32421875 39.79296875 C24.13156404 45.11450273 24.04564997 47.43152505 21 52 C20.09516436 55.8723898 19.72214661 59.16643983 21 63 C20.0625 65.6875 20.0625 65.6875 19 68 C12.7357958 67.62232449 6.95936027 66.74926092 0.875 65.1875 C-6.83852147 63.52952712 -12.74586104 64.83109143 -20.22265625 67.01953125 C-23.68807437 67.91903482 -26.44750216 68.19397414 -30 68 C-31.625 64.6875 -31.625 64.6875 -33 61 C-32.34 60.01 -31.68 59.02 -31 58 C-32.43571049 55.06021185 -33.82270942 52.25608639 -35.6875 49.5625 C-37.39926587 46.22048091 -37.27961904 43.70495224 -37 40 C-36.67 39.34 -36.34 38.68 -36 38 C-34.97519531 38.09087891 -34.97519531 38.09087891 -33.9296875 38.18359375 C-22.96791743 39.09473832 -11.98834906 39.53987121 -1 40 C2.02934948 34.34606855 2.03722216 27.73519886 0.32421875 21.56640625 C-0.22054388 20.11800893 -0.7699467 18.67134747 -1.32421875 17.2265625 C-3.04208324 11.56654656 -2.80016816 5.25031531 0 0 Z M13 59 C14.65 59 16.3 59 18 59 C18.33 58.34 18.66 57.68 19 57 C15.81509993 56.7226499 15.81509993 56.7226499 13 59 Z M-28 57 C-28.66 57.66 -29.32 58.32 -30 59 C-28.35 59 -26.7 59 -25 59 C-25.99 58.34 -26.98 57.68 -28 57 Z " fill="#F18515" transform="translate(115,260)"/>
<path d="M0 0 C12.97504811 4.53141593 25.47737688 11.63418343 32 24.1875 C35.14196976 31.83012914 35.35785333 40.03584142 32.5 47.8125 C32.005 48.864375 31.51 49.91625 31 51 C28.17649915 50.66611558 27.21038665 50.26217265 25.40014648 48.00634766 C24.89555908 47.15089355 24.39097168 46.29543945 23.87109375 45.4140625 C23.31099609 44.48335937 22.75089844 43.55265625 22.17382812 42.59375 C21.60083984 41.6140625 21.02785156 40.634375 20.4375 39.625 C19.29402641 37.69834282 18.14702953 35.77377127 16.99609375 33.8515625 C16.49263428 32.99385254 15.9891748 32.13614258 15.47045898 31.25244141 C14.13469234 29.20632102 12.79861569 27.63972738 11 26 C11.33845947 26.83772949 11.67691895 27.67545898 12.02563477 28.53857422 C13.27482569 31.64097941 14.51706067 34.74598125 15.75463867 37.85302734 C16.29222679 39.19854102 16.83258349 40.54295191 17.37573242 41.88623047 C18.15489335 43.81456482 18.92408988 45.74661477 19.69140625 47.6796875 C20.15748291 48.84226074 20.62355957 50.00483398 21.10375977 51.20263672 C22 54 22 54 21 56 C12.41487583 55.68781367 6.52947378 51.95985626 0.6875 45.75 C-6.56153351 36.42116022 -7.06584422 26.36900506 -6 15 C-4.18845006 3.54317064 -4.18845006 3.54317064 0 0 Z " fill="#81CA2E" transform="translate(63,60)"/>
<path d="M0 0 C4.1218866 9.70081218 7.00479819 19.16010028 3.9375 29.625 C0.81423866 35.06551975 -2.97243793 40.63930472 -9 43 C-9.99 43 -10.98 43 -12 43 C-12.2770731 36.7658552 -11.20894317 31.1202748 -10 25 C-13.465 32.425 -13.465 32.425 -17 40 C-21 39 -21 39 -22.75 36.6875 C-24.98509137 30.09398046 -25.31701649 22.95110746 -22.25 16.5625 C-19.12598186 11.02108687 -15.29043894 7.19902885 -10 3.6875 C-8.96875 2.99011719 -7.9375 2.29273438 -6.875 1.57421875 C-4 0 -4 0 0 0 Z M-9 21 C-8 23 -8 23 -8 23 Z " fill="#85C536" transform="translate(131,29)"/>
<path d="M0 0 C0.66 0 1.32 0 2 0 C2.33 0.66 2.66 1.32 3 2 C5.01669827 3.13350534 5.01669827 3.13350534 7 4 C7.66 3.34 8.32 2.68 9 2 C9.65161012 3.87300025 10.29602195 5.7485055 10.9375 7.625 C11.29714844 8.66914063 11.65679687 9.71328125 12.02734375 10.7890625 C15.42776698 22.01455605 16.07547403 37.21461768 11 48 C9.46822097 50.77179063 7.82742589 53.41415624 6 56 C5.34 55.34 4.68 54.68 4 54 C3.319375 54.928125 2.63875 55.85625 1.9375 56.8125 C-0.38704408 59.59156387 -2.51245192 60.95639708 -5.96875 62.20703125 C-9.35298502 63.52818454 -12.485463 65.36526161 -15.66796875 67.109375 C-18.29721395 68.11350885 -19.40901131 67.97683252 -22 67 C-21.34 67 -20.68 67 -20 67 C-20 66.34 -20 65.68 -20 65 C-19.27167969 64.61199219 -18.54335937 64.22398437 -17.79296875 63.82421875 C-14.11290196 61.42059471 -12.50986918 58.54465856 -10.3125 54.8125 C-8.92822889 52.49012781 -7.51042777 50.24635328 -6 48 C-5.34 48 -4.68 48 -4 48 C-3.81824219 47.21496094 -3.63648438 46.42992187 -3.44921875 45.62109375 C-3.07216797 44.04521484 -3.07216797 44.04521484 -2.6875 42.4375 C-2.44386719 41.40496094 -2.20023438 40.37242187 -1.94921875 39.30859375 C-1 36 -1 36 0.5859375 32.6953125 C2.34302197 28.10359451 2.40798439 24.29956514 2.3125 19.4375 C2.31572266 18.61314453 2.31894531 17.78878906 2.32226562 16.93945312 C2.28057046 12.19757553 1.65447916 8.48884585 0 4 C0 2.68 0 1.36 0 0 Z " fill="#3F281D" transform="translate(172,222)"/>
<path d="M0 0 C0.66 0 1.32 0 2 0 C1.835 0.94875 1.67 1.8975 1.5 2.875 C0.62715979 9.24159915 0.16332647 15.29083118 2.5 21.375 C4.51166254 26.74901278 4.8367814 32.33121618 4 38 C2.76123047 40.13989258 2.76123047 40.13989258 1 42 C-1.12207031 42.48583984 -1.12207031 42.48583984 -3.578125 42.4609375 C-4.48546387 42.45835937 -5.39280273 42.45578125 -6.32763672 42.453125 C-7.77420654 42.41445313 -7.77420654 42.41445313 -9.25 42.375 C-10.2311377 42.36210937 -11.21227539 42.34921875 -12.22314453 42.3359375 C-20.25972927 42.1678246 -28.08306568 41.38114742 -36 40 C-36 39.67 -36 39.34 -36 39 C-29.07 39 -22.14 39 -15 39 C-15.60855027 35.95724864 -16.22389502 32.99354776 -17 30 C-17.99 30 -18.98 30 -20 30 C-20.02701408 27.89590361 -20.04640223 25.79170822 -20.0625 23.6875 C-20.07990234 21.92986328 -20.07990234 21.92986328 -20.09765625 20.13671875 C-20 17 -20 17 -19 14 C-18.34 14 -17.68 14 -17 14 C-17 13.01 -17 12.02 -17 11 C-14.23504535 9.1566969 -12.11270084 8.88451944 -8.875 8.9375 C-5.2050965 9.29487317 -5.2050965 9.29487317 -3 8 C-2.29508733 5.67793475 -1.62787571 3.34406932 -1 1 C-0.67 0.67 -0.34 0.34 0 0 Z " fill="#381E12" transform="translate(113,258)"/>
<path d="M0 0 C1.00335818 3.12155879 0.80670923 4.87400172 0 8 C0.495 9.485 0.495 9.485 1 11 C0.0625 13.6875 0.0625 13.6875 -1 16 C-7.2642042 15.62232449 -13.04063973 14.74926092 -19.125 13.1875 C-26.83852147 11.52952712 -32.74586104 12.83109143 -40.22265625 15.01953125 C-43.68807437 15.91903482 -46.44750216 16.19397414 -50 16 C-51.625 12.6875 -51.625 12.6875 -53 9 C-52.34 8.01 -51.68 7.02 -51 6 C-51 4.68 -51 3.36 -51 2 C-41 4 -41 4 -38.71875 4.52734375 C-35.70090437 5.05199795 -32.88690325 5.11274337 -29.82421875 5.09765625 C-28.08881836 5.09282227 -28.08881836 5.09282227 -26.31835938 5.08789062 C-25.12017578 5.07951172 -23.92199219 5.07113281 -22.6875 5.0625 C-21.46998047 5.05798828 -20.25246094 5.05347656 -18.99804688 5.04882812 C-15.99864774 5.03706578 -12.99934911 5.02062826 -10 5 C-10 4.34 -10 3.68 -10 3 C-3.375 0 -3.375 0 0 0 Z M-7 7 C-5.35 7 -3.7 7 -2 7 C-1.67 6.34 -1.34 5.68 -1 5 C-4.18490007 4.7226499 -4.18490007 4.7226499 -7 7 Z M-48 5 C-48.66 5.66 -49.32 6.32 -50 7 C-48.35 7 -46.7 7 -45 7 C-45.99 6.34 -46.98 5.68 -48 5 Z " fill="#351D13" transform="translate(135,312)"/>
<path d="M0 0 C4.36774818 -0.65516223 6.66653193 0.155176 10.125 2.6875 C14.14013129 5.94259688 17.33765871 9.01297614 19 14 C19.91048637 23.77653394 19.91048637 23.77653394 17 27.6875 C16.34 28.120625 15.68 28.55375 15 29 C12.67527795 26.14693203 11.2491742 23.45925163 10 20 C10.66 22.97 11.32 25.94 12 29 C11.01 29.66 10.02 30.32 9 31 C2.76969755 27.88484878 -0.71408672 24.85773983 -3 18 C-3.62197971 11.26587355 -2.73634986 6.15678719 0 0 Z " fill="#88BF3D" transform="translate(64,0)"/>
<path d="M0 0 C2 1 2 1 2.83837891 2.84350586 C5.02914535 9.8299904 5.45422326 16.26955874 5.375 23.5625 C5.38660156 24.63435547 5.39820313 25.70621094 5.41015625 26.81054688 C5.37372269 36.7386925 3.66538177 44.02409898 -3.0625 51.4375 C-3.50916016 51.95248047 -3.95582031 52.46746094 -4.41601562 52.99804688 C-7.69242697 56.75441086 -10.44648127 59.3943946 -14.875 61.6875 C-16.17050781 62.37392578 -16.17050781 62.37392578 -17.4921875 63.07421875 C-20.2243612 64.08282493 -21.32738894 64.0255368 -24 63 C-23.34 63 -22.68 63 -22 63 C-22 62.34 -22 61.68 -22 61 C-20.90751953 60.41798828 -20.90751953 60.41798828 -19.79296875 59.82421875 C-16.11290196 57.42059471 -14.50986918 54.54465856 -12.3125 50.8125 C-10.92822889 48.49012781 -9.51042777 46.24635328 -8 44 C-7.34 44 -6.68 44 -6 44 C-5.81824219 43.21496094 -5.63648438 42.42992187 -5.44921875 41.62109375 C-5.07216797 40.04521484 -5.07216797 40.04521484 -4.6875 38.4375 C-4.44386719 37.40496094 -4.20023438 36.37242187 -3.94921875 35.30859375 C-3 32 -3 32 -1.40625 28.90625 C0.95952171 23.59228347 0.31375909 17.75710865 0.1875 12.0625 C0.17396484 10.90169922 0.16042969 9.74089844 0.14648438 8.54492188 C0.1113141 5.69612948 0.06209287 2.84831156 0 0 Z " fill="#643E27" transform="translate(174,226)"/>
<path d="M0 0 C0.66 0 1.32 0 2 0 C1.835 0.94875 1.67 1.8975 1.5 2.875 C0.60428304 9.17061062 0.35118456 15.81694209 2 22 C0 20.8125 0 20.8125 -2 19 C-2.25 16.3125 -2.25 16.3125 -2 14 C-3.98 14.66 -5.96 15.32 -8 16 C-8.03738281 17.10859375 -8.07476562 18.2171875 -8.11328125 19.359375 C-8.17895448 20.82294974 -8.24540135 22.28648991 -8.3125 23.75 C-8.34633789 24.84441406 -8.34633789 24.84441406 -8.38085938 25.9609375 C-8.54232103 29.1901706 -8.81062696 31.6485411 -10.35546875 34.515625 C-12 36 -12 36 -15 36 C-17 33 -17 33 -17 30 C-17.99 30 -18.98 30 -20 30 C-20.02701408 27.89590361 -20.04640223 25.79170822 -20.0625 23.6875 C-20.07410156 22.51574219 -20.08570312 21.34398437 -20.09765625 20.13671875 C-20 17 -20 17 -19 14 C-18.34 14 -17.68 14 -17 14 C-17 13.01 -17 12.02 -17 11 C-14.23504535 9.1566969 -12.11270084 8.88451944 -8.875 8.9375 C-5.2050965 9.29487317 -5.2050965 9.29487317 -3 8 C-2.29508733 5.67793475 -1.62787571 3.34406932 -1 1 C-0.67 0.67 -0.34 0.34 0 0 Z " fill="#3E1D0B" transform="translate(113,258)"/>
<path d="M0 0 C0.66 0.33 1.32 0.66 2 1 C2.6328125 3.28515625 2.6328125 3.28515625 3.125 6.0625 C3.37636719 7.44115234 3.37636719 7.44115234 3.6328125 8.84765625 C3.75398438 9.55792969 3.87515625 10.26820313 4 11 C4.66 11 5.32 11 6 11 C8.32019297 14.19026533 10.34643078 17.41726669 12 21 C10.68 21.33 9.36 21.66 8 22 C8 20.68 8 19.36 8 18 C6.35 18.33 4.7 18.66 3 19 C3.144375 19.556875 3.28875 20.11375 3.4375 20.6875 C5.05972872 27.3566625 6.78290411 34.75820822 3 41 C-1.01586564 42.35406956 -5.12215166 42.1496958 -9.3125 42.125 C-10.49561768 42.12209961 -10.49561768 42.12209961 -11.70263672 42.11914062 C-19.16235928 42.06526901 -26.56657952 41.61396983 -34 41 C-33.34 44.3 -32.68 47.6 -32 51 C-31.0925 51.12375 -30.185 51.2475 -29.25 51.375 C-26.41029677 51.92109677 -24.47409409 52.57263803 -22 54 C-22 54.66 -22 55.32 -22 56 C-30.59394314 56.26699629 -30.59394314 56.26699629 -33.77734375 53.3984375 C-36.71767314 48.98368207 -37.64300699 45.3583916 -37 40 C-36.67 39.34 -36.34 38.68 -36 38 C-34.97519531 38.09087891 -34.97519531 38.09087891 -33.9296875 38.18359375 C-22.96791743 39.09473832 -11.98834906 39.53987121 -1 40 C2.02934948 34.34606855 2.03722216 27.73519886 0.32421875 21.56640625 C-0.22054388 20.11800893 -0.7699467 18.67134747 -1.32421875 17.2265625 C-3.04208324 11.56654656 -2.80016816 5.25031531 0 0 Z " fill="#E48322" transform="translate(115,260)"/>
<path d="M0 0 C11.02446483 4.21712538 11.02446483 4.21712538 15 7 C15 7.33 15 7.66 15 8 C10.64358754 7.48748089 7.04553973 6.64008368 3 5 C1.68 5 0.36 5 -1 5 C-3.52446512 13.66891797 -4.61336547 21.98741574 -5 31 C-4.34 31 -3.68 31 -3 31 C-1 39 -1 39 -0.59375 41.1875 C-0.3978125 41.785625 -0.201875 42.38375 0 43 C2.49034386 44.29660434 2.49034386 44.29660434 5 45 C5 45.66 5 46.32 5 47 C7.31 47.66 9.62 48.32 12 49 C12 48.01 12 47.02 12 46 C12.66 46 13.32 46 14 46 C13.67 43.03 13.34 40.06 13 37 C12.34 37 11.68 37 11 37 C7.37129841 23.3667426 7.37129841 23.3667426 9 17 C12 18 12 18 13.203125 20.1796875 C13.54859375 21.06914063 13.8940625 21.95859375 14.25 22.875 C14.78367187 24.20144531 14.78367187 24.20144531 15.328125 25.5546875 C16 28 16 28 15 31 C13.68 29.02 12.36 27.04 11 25 C11.29769287 25.80219971 11.59538574 26.60439941 11.90209961 27.4309082 C13.00763698 30.41074267 14.11273241 33.39074054 15.2175293 36.37084961 C15.69554248 37.65997773 16.17373113 38.94904079 16.65209961 40.23803711 C17.34014409 42.09211337 18.02750277 43.94644408 18.71484375 45.80078125 C19.12855225 46.91622314 19.54226074 48.03166504 19.96850586 49.1809082 C20.67446661 51.11031147 21.35030949 53.05092848 22 55 C21.67 55.33 21.34 55.66 21 56 C13.07723445 55.85852204 8.02161835 52.65601668 2.23828125 47.3984375 C-4.89156223 39.81961143 -6.53906461 31.49321898 -6.40893555 21.41210938 C-5.84961177 6.23094667 -5.84961177 6.23094667 -1.39453125 1.1796875 C-0.93433594 0.79039063 -0.47414063 0.40109375 0 0 Z " fill="#85C633" transform="translate(63,60)"/>
<path d="M0 0 C0 0.99 0 1.98 0 3 C0.99 3.33 1.98 3.66 3 4 C2.938125 4.9075 2.87625 5.815 2.8125 6.75 C3.01983417 10.34379235 3.72460237 11.34536943 6 14 C6 14.66 6 15.32 6 16 C6.66 16 7.32 16 8 16 C8 17.32 8 18.64 8 20 C8.66 20 9.32 20 10 20 C10.33 22.97 10.66 25.94 11 29 C10.34 29 9.68 29 9 29 C9 29.99 9 30.98 9 32 C4.57423225 31.49419797 2.33236314 29.8820438 -1 27 C-1.66 26.67 -2.32 26.34 -3 26 C-3.40197001 23.67750658 -3.72686657 21.34114367 -4 19 C-4.36931269 15.69253254 -4.36931269 15.69253254 -6 13 C-6.07258946 10.81360547 -6.08373783 8.62499611 -6.0625 6.4375 C-6.05347656 5.23996094 -6.04445312 4.04242188 -6.03515625 2.80859375 C-6.02355469 1.88175781 -6.01195312 0.95492187 -6 0 C-2.25 -1.125 -2.25 -1.125 0 0 Z " fill="#80CB29" transform="translate(66,77)"/>
<path d="M0 0 C0.84151834 14.96032601 -1.83723375 29.18445699 -10 42 C-11.29118489 43.37418963 -12.61398334 44.72151912 -14 46 C-14 44.68 -14 43.36 -14 42 C-13.34 42 -12.68 42 -12 42 C-11.67 40.35 -11.34 38.7 -11 37 C-10.01 36.67 -9.02 36.34 -8 36 C-8 33.36 -8 30.72 -8 28 C-7.34 28 -6.68 28 -6 28 C-6.495 26.02 -6.495 26.02 -7 24 C-6.34 23.67 -5.68 23.34 -5 23 C-4.67 17.39 -4.34 11.78 -4 6 C-3.34 6 -2.68 6 -2 6 C-2 5.34 -2 4.68 -2 4 C-6.95 3.67 -11.9 3.34 -17 3 C-17 3.66 -17 4.32 -17 5 C-20.25359669 7.16906446 -22.11842976 7.47127829 -25.9375 8 C-29.75932353 8.53041417 -32.59266405 9.23377834 -36 11 C-36.99 11 -37.98 11 -39 11 C-39 11.66 -39 12.32 -39 13 C-40.65 13.33 -42.3 13.66 -44 14 C-42.50047883 9.62639658 -39.75994835 8.44696963 -35.75 6.4375 C-24.17023438 0.80195413 -12.80386244 -0.52538645 0 0 Z " fill="#87BF40" transform="translate(161,98)"/>
<path d="M0 0 C0.495 0.7734375 0.495 0.7734375 1 1.5625 C0.34 3.8725 -0.32 6.1825 -1 8.5625 C-7.2642042 8.18482449 -13.04063973 7.31176092 -19.125 5.75 C-26.83852147 4.09202712 -32.74586104 5.39359143 -40.22265625 7.58203125 C-43.70010614 8.48465785 -46.43480797 8.83925007 -50 8.5625 C-51 7.5625 -51 7.5625 -51.0625 4.5 C-51.041875 3.530625 -51.02125 2.56125 -51 1.5625 C-50.34 2.8825 -49.68 4.2025 -49 5.5625 C-47.66549443 5.50071733 -46.33226026 5.41151934 -45 5.3125 C-44.2575 5.26609375 -43.515 5.2196875 -42.75 5.171875 C-40.1300305 4.59131358 -38.57349124 3.82401076 -36.265625 2.52734375 C-31.69345919 0.13715285 -27.81887731 0.1257802 -22.75 0.375 C-21.18243076 0.42750845 -19.61471457 0.47583302 -18.046875 0.51953125 C-17.36463867 0.55022705 -16.68240234 0.58092285 -15.97949219 0.61254883 C-13.84644536 0.55861757 -12.04853438 0.14074332 -10 -0.4375 C-2.71092687 -1.94847869 -2.71092687 -1.94847869 0 0 Z " fill="#351C13" transform="translate(135,319.4375)"/>
<path d="M0 0 C7.84673669 2.66623271 13.33343073 8.99371991 17.0625 16.25 C20.14995009 23.86713465 20.3413919 32.0806355 17.5 39.8125 C17.005 40.864375 16.51 41.91625 16 43 C13.3584974 42.64136903 12.26599722 42.32087357 10.53613281 40.23413086 C9.87629395 39.11083374 9.87629395 39.11083374 9.203125 37.96484375 C8.71972656 37.15595703 8.23632812 36.34707031 7.73828125 35.51367188 C7.00158203 34.2384668 7.00158203 34.2384668 6.25 32.9375 C5.74339844 32.08349609 5.23679687 31.22949219 4.71484375 30.34960938 C3.46522648 28.23940662 2.22764311 26.12303709 1 24 C1.99 24 2.98 24 4 24 C4.99 25.98 5.98 27.96 7 30 C7.99 30 8.98 30 10 30 C11.32 30 12.64 30 14 30 C14.33 29.34 14.66 28.68 15 28 C14.34 28 13.68 28 13 28 C13.875 22.25 13.875 22.25 15 20 C14.01 19.67 13.02 19.34 12 19 C12.33 17.68 12.66 16.36 13 15 C12.34 14.67 11.68 14.34 11 14 C8 12 8 12 7.125 9.0625 C5.75391753 5.33010883 4.40152506 4.83159042 1 3 C0.67 2.01 0.34 1.02 0 0 Z " fill="#83CA2D" transform="translate(78,68)"/>
<path d="M0 0 C2.57283887 9.32654091 3.87994455 19.8821303 0 29 C-1.82387802 31.13116182 -3.67503422 32.35314924 -6 34 C-6.66 34 -7.32 34 -8 34 C-8.33 34.66 -8.66 35.32 -9 36 C-10.47417409 32.16714736 -9.38262873 29.74123068 -8 26 C-8 25.34 -8 24.68 -8 24 C-8.66 23.67 -9.32 23.34 -10 23 C-9.38125 22.5875 -8.7625 22.175 -8.125 21.75 C-4.56758417 18.82036344 -3.54961555 15.50684748 -3 11 C-3.36770226 8.36480048 -3.81166449 6.37667102 -5 4 C-5.33 4.99 -5.66 5.98 -6 7 C-6.99 6.34 -7.98 5.68 -9 5 C-6.81610567 0.16423399 -5.20641855 -0.13701101 0 0 Z " fill="#81CA2C" transform="translate(131,32)"/>
<path d="M0 0 C4.1218866 9.70081218 7.00479819 19.16010028 3.9375 29.625 C0.81423866 35.06551975 -2.97243793 40.63930472 -9 43 C-9.99 43 -10.98 43 -12 43 C-12.2396943 37.36718401 -11.38529821 32.45461169 -10 27 C-9.34 27 -8.68 27 -8 27 C-7.09935779 29.5217982 -6.80592281 30.57303018 -7.9375 33.0625 C-8.288125 33.701875 -8.63875 34.34125 -9 35 C-9 35.99 -9 36.98 -9 38 C-7.50870692 36.95458849 -6.03230598 35.88791186 -4.5625 34.8125 C-3.73878906 34.22082031 -2.91507813 33.62914062 -2.06640625 33.01953125 C1.16406815 29.86233793 0.95333709 27.13637905 1.1328125 22.765625 C1.11798088 16.09139573 0.91223567 9.61370863 0 3 C-5.15516904 4.23724057 -8.61047221 5.90737815 -13 9 C-13.99 9.33 -14.98 9.66 -16 10 C-16 9.34 -16 8.68 -16 8 C-13.515625 6.0546875 -13.515625 6.0546875 -10.25 3.875 C-9.18265625 3.15054688 -8.1153125 2.42609375 -7.015625 1.6796875 C-4 0 -4 0 0 0 Z " fill="#8AB94D" transform="translate(131,29)"/>
<path d="M0 0 C0.33 0.99 0.66 1.98 1 3 C0.4225 3.515625 -0.155 4.03125 -0.75 4.5625 C-4.62233492 8.7575295 -6.882867 12.1551553 -7.25 17.9375 C-7.1675 18.948125 -7.085 19.95875 -7 21 C-6.34 21.33 -5.68 21.66 -5 22 C-5.99 22.66 -6.98 23.32 -8 24 C-7.67 25.65 -7.34 27.3 -7 29 C-4.37812506 27.95125002 -3.20628639 27.35068687 -1.75 24.875 C-1.5025 24.25625 -1.255 23.6375 -1 23 C-0.34 23 0.32 23 1 23 C1 22.34 1 21.68 1 21 C1.99 21 2.98 21 4 21 C4.33 20.34 4.66 19.68 5 19 C7.5625 18.375 7.5625 18.375 10 18 C10 17.34 10 16.68 10 16 C10.99 16 11.98 16 13 16 C13.309375 15.38125 13.61875 14.7625 13.9375 14.125 C14.625 12.75 15.3125 11.375 16 10 C17.65 10 19.3 10 21 10 C15.58010813 15.56225301 9.68769983 20.51801097 3.75390625 25.51953125 C2.15307626 26.87078864 0.56046482 28.23176721 -1.03125 29.59375 C-1.9078125 30.3259375 -2.784375 31.058125 -3.6875 31.8125 C-4.45449219 32.45832031 -5.22148438 33.10414063 -6.01171875 33.76953125 C-6.66785156 34.17558594 -7.32398437 34.58164063 -8 35 C-8.99 34.67 -9.98 34.34 -11 34 C-13.11835696 25.77041181 -10.89150045 16.53807478 -7.21875 9.01171875 C-5.19329075 5.66841262 -2.70752875 2.8068048 0 0 Z " fill="#8AC338" transform="translate(115,111)"/>
<path d="M0 0 C0.680625 0.45375 1.36125 0.9075 2.0625 1.375 C5.01720735 3.16180112 5.01720735 3.16180112 8.6875 4 C12 5 12 5 14 8 C14.4140625 10.26171875 14.4140625 10.26171875 14.625 12.6875 C14.69976562 13.49574219 14.77453125 14.30398437 14.8515625 15.13671875 C14.92503906 16.05904297 14.92503906 16.05904297 15 17 C14.34 17 13.68 17 13 17 C13 16.01 13 15.02 13 14 C12.195625 13.731875 11.39125 13.46375 10.5625 13.1875 C9.716875 12.795625 8.87125 12.40375 8 12 C7.67 11.01 7.34 10.02 7 9 C6.01 9.33 5.02 9.66 4 10 C4.33 10.99 4.66 11.98 5 13 C5.06802967 14.72795352 5.08495645 16.45835365 5.0625 18.1875 C5.05347656 19.08855469 5.04445313 19.98960938 5.03515625 20.91796875 C5.02355469 21.60503906 5.01195313 22.29210937 5 23 C4.34 23 3.68 23 3 23 C-1 18.52941176 -1 18.52941176 -1 16 C-1.99 15.67 -2.98 15.34 -4 15 C-3.34 15 -2.68 15 -2 15 C-2.04125 13.824375 -2.0825 12.64875 -2.125 11.4375 C-2.13983635 7.27590326 -1.31170778 3.93512333 0 0 Z " fill="#82CA2E" transform="translate(65,2)"/>
<path d="M0 0 C-0.32814697 0.57363281 -0.65629395 1.14726562 -0.99438477 1.73828125 C-2.07259002 4.16326146 -2.19947105 5.56361384 -2.08984375 8.1875 C-2.06986328 8.96867187 -2.04988281 9.74984375 -2.02929688 10.5546875 C-1.96809329 12.18504693 -1.902988 13.81526457 -1.83398438 15.4453125 C-1.69089246 21.42556785 -1.69089246 21.42556785 -3.37890625 24.5625 C-5 26 -5 26 -7 26 C-11.34734714 12.15576952 -11.34734714 12.15576952 -10 6 C-7.19705673 2.36374927 -4.80027397 0 0 0 Z " fill="#F2871B" transform="translate(106,268)"/>
<path d="M0 0 C0.5775 0.226875 1.155 0.45375 1.75 0.6875 C1.15312566 4.02999629 0.01396123 6.15186342 -2.25 8.6875 C-2.91 8.6875 -3.57 8.6875 -4.25 8.6875 C-4.25 9.3475 -4.25 10.0075 -4.25 10.6875 C-4.91 10.6875 -5.57 10.6875 -6.25 10.6875 C-6.25 11.3475 -6.25 12.0075 -6.25 12.6875 C-7.24 13.3475 -8.23 14.0075 -9.25 14.6875 C-10.03988145 16.64135067 -10.03988145 16.64135067 -10.4375 18.8125 C-10.705625 20.09125 -10.97375 21.37 -11.25 22.6875 C-11.91 22.6875 -12.57 22.6875 -13.25 22.6875 C-13.58 23.6775 -13.91 24.6675 -14.25 25.6875 C-16.49508043 28.49385053 -18.86046988 29.58590271 -22.25 30.6875 C-23.24 30.6875 -24.23 30.6875 -25.25 30.6875 C-24.44175781 29.75808594 -23.63351563 28.82867187 -22.80078125 27.87109375 C-21.7211973 26.62253145 -20.64177907 25.37382585 -19.5625 24.125 C-19.03205078 23.51591797 -18.50160156 22.90683594 -17.95507812 22.27929688 C-10.95745637 14.89479869 -10.95745637 14.89479869 -8.25 5.6875 C-7.59 5.6875 -6.93 5.6875 -6.25 5.6875 C-6.25 4.6975 -6.25 3.7075 -6.25 2.6875 C-4.08146295 0.51896295 -3.10906228 -0.43181421 0 0 Z " fill="#81B537" transform="translate(145.25,112.3125)"/>
<path d="M0 0 C0.66 1.32 1.32 2.64 2 4 C3.39664108 3.88437394 4.79231199 3.757008 6.1875 3.625 C7.35345703 3.52058594 7.35345703 3.52058594 8.54296875 3.4140625 C11.24284986 2.95907459 13.46369439 2.01765349 16 1 C24.7690724 -0.90690395 32.11907473 0.6738143 40.53125 3.08984375 C44.04714357 4.16919748 44.04714357 4.16919748 48 4 C48.66 3.01 49.32 2.02 50 1 C50 2.98 50 4.96 50 7 C43.7357958 6.62232449 37.95936027 5.74926092 31.875 4.1875 C24.16147853 2.52952712 18.25413896 3.83109143 10.77734375 6.01953125 C7.29989386 6.92215785 4.56519203 7.27675007 1 7 C0 6 0 6 -0.0625 2.9375 C-0.041875 1.968125 -0.02125 0.99875 0 0 Z " fill="#1E0E0B" transform="translate(84,321)"/>
<path d="M0 0 C0.02714735 2.22909871 0.04646254 4.45829367 0.0625 6.6875 C0.07410156 7.92886719 0.08570313 9.17023438 0.09765625 10.44921875 C0.01478673 13.46235454 -0.29160551 16.08275339 -1 19 C-1.33 19 -1.66 19 -2 19 C-1.67 13.06 -1.34 7.12 -1 1 C-7.6 1.66 -14.2 2.32 -21 3 C-21 3.66 -21 4.32 -21 5 C-22.7634375 5.37125 -22.7634375 5.37125 -24.5625 5.75 C-27.63740796 6.5023711 -30.10246396 7.49202957 -32.8125 9.125 C-36 11 -36 11 -39 11 C-39 11.66 -39 12.32 -39 13 C-40.65 13.33 -42.3 13.66 -44 14 C-42.50047883 9.62639658 -39.75994835 8.44696963 -35.75 6.4375 C-24.17023438 0.80195413 -12.80386244 -0.52538645 0 0 Z " fill="#90B757" transform="translate(161,98)"/>
<path d="M0 0 C0.625 1.8125 0.625 1.8125 1 4 C0.34 4.99 -0.32 5.98 -1 7 C-1 6.34 -1 5.68 -1 5 C-1.7425 5.309375 -2.485 5.61875 -3.25 5.9375 C-9.24210526 8.25263158 -9.24210526 8.25263158 -13 7 C-13.33 7.66 -13.66 8.32 -14 9 C-17.3756301 8.88936784 -20.75021989 8.75891985 -24.125 8.625 C-25.07632813 8.5940625 -26.02765625 8.563125 -27.0078125 8.53125 C-32.01710348 8.32252954 -36.30366613 7.94494635 -41 6 C-41 5.67 -41 5.34 -41 5 C-30.77 5 -20.54 5 -10 5 C-10 4.34 -10 3.68 -10 3 C-3.375 0 -3.375 0 0 0 Z " fill="#4B2103" transform="translate(135,312)"/>
<path d="M0 0 C11.02446483 4.21712538 11.02446483 4.21712538 15 7 C15 7.33 15 7.66 15 8 C10.64358754 7.48748089 7.04553973 6.64008368 3 5 C1.68 5 0.36 5 -1 5 C-3.52446512 13.66891797 -4.61336547 21.98741574 -5 31 C-4.34 31 -3.68 31 -3 31 C-2 35 -1 39 0 43 C0.66 43 1.32 43 2 43 C1.67 43.99 1.34 44.98 1 46 C0.20010196 44.79709989 -0.58947824 43.58733705 -1.375 42.375 C-1.81585938 41.70210937 -2.25671875 41.02921875 -2.7109375 40.3359375 C-5.67899271 34.9574617 -6.35844769 29.94421005 -6.3125 23.875 C-6.30903564 23.13233887 -6.30557129 22.38967773 -6.30200195 21.62451172 C-6.00513643 6.40728365 -6.00513643 6.40728365 -1.39453125 1.1796875 C-0.93433594 0.79039063 -0.47414063 0.40109375 0 0 Z " fill="#8DB959" transform="translate(63,60)"/>
<path d="M0 0 C2.75 -0.3125 2.75 -0.3125 5 0 C5 0.66 5 1.32 5 2 C-5.61607823 10.27429627 -13.87629335 11.36010171 -27 11 C-27.33 10.01 -27.66 9.02 -28 8 C-27.00390625 6.17578125 -27.00390625 6.17578125 -25.5625 4.3125 C-25.08941406 3.68988281 -24.61632812 3.06726563 -24.12890625 2.42578125 C-23.75636719 1.95527344 -23.38382812 1.48476562 -23 1 C-21.95550089 4.13349732 -22.06576355 4.98968256 -23 8 C-21.37536158 8.05395478 -19.75021459 8.09277195 -18.125 8.125 C-17.22007813 8.14820313 -16.31515625 8.17140625 -15.3828125 8.1953125 C-12.81193006 8.24324836 -12.81193006 8.24324836 -11 6 C-9.88625 5.896875 -8.7725 5.79375 -7.625 5.6875 C-3.17540816 4.84361189 -2.66289089 3.46175816 0 0 Z " fill="#89B73F" transform="translate(141,144)"/>
<path d="M0 0 C3 1 3 1 4.875 3.125 C5.57625 3.74375 6.2775 4.3625 7 5 C9.70705512 4.85974801 9.70705512 4.85974801 12 4 C12 3.34 12 2.68 12 2 C14.375 2.625 14.375 2.625 17 4 C18.3125 7.125 18.3125 7.125 19 10 C17.36781064 11.63218936 15.56056873 11.28763111 13.3125 11.375 C9.59888135 11.3484362 7.3892378 11.07488508 4.5 8.6875 C0 3.85 0 3.85 0 0 Z " fill="#342018" transform="translate(166,313)"/>
<path d="M0 0 C0.99 0.495 0.99 0.495 2 1 C1.34 1.66 0.68 2.32 0 3 C0 2.01 0 1.02 0 0 Z M16 -12 C18.68125591 -9.31874409 18.29880654 -7.85875084 18.3125 -4.125 C18.32925781 -3.07570313 18.34601563 -2.02640625 18.36328125 -0.9453125 C17.94983455 2.4067177 17.30910084 3.58444331 15 6 C12.87792969 6.48583984 12.87792969 6.48583984 10.421875 6.4609375 C9.51453613 6.45835937 8.60719727 6.45578125 7.67236328 6.453125 C6.7079834 6.42734375 5.74360352 6.4015625 4.75 6.375 C3.7688623 6.36210937 2.78772461 6.34921875 1.77685547 6.3359375 C-6.25972927 6.1678246 -14.08306568 5.38114742 -22 4 C-22 3.67 -22 3.34 -22 3 C-20.95021973 3.01047363 -19.90043945 3.02094727 -18.81884766 3.03173828 C-14.93134967 3.06788453 -11.04386659 3.09088078 -7.15625 3.10986328 C-5.47230534 3.11993317 -3.78837821 3.13358988 -2.10449219 3.15087891 C0.31319501 3.17508426 2.73065143 3.18647296 5.1484375 3.1953125 C6.28132706 3.21079636 6.28132706 3.21079636 7.43710327 3.22659302 C9.2929398 3.22699318 11.1481928 3.12222716 13 3 C15.77042109 0.22957891 15.39796106 -1.76533805 15.625 -5.625 C15.69976562 -6.81351562 15.77453125 -8.00203125 15.8515625 -9.2265625 C15.90054688 -10.14179688 15.94953125 -11.05703125 16 -12 Z " fill="#5D2B05" transform="translate(99,294)"/>
<path d="M0 0 C7.84673669 2.66623271 13.33343073 8.99371991 17.0625 16.25 C19.55771598 22.34176866 19.87670408 28.50316133 19 35 C18.34 35.99 17.68 36.98 17 38 C17.33 33.05 17.66 28.1 18 23 C17.01 23.33 16.02 23.66 15 24 C15 22.68 15 21.36 15 20 C14.01 19.67 13.02 19.34 12 19 C12.33 17.68 12.66 16.36 13 15 C12.34 14.67 11.68 14.34 11 14 C8 12 8 12 7.125 9.0625 C5.75391753 5.33010883 4.40152506 4.83159042 1 3 C0.67 2.01 0.34 1.02 0 0 Z " fill="#8EB752" transform="translate(78,68)"/>
<path d="M0 0 C0.99 0 1.98 0 3 0 C2.59524765 7.15062486 0.17476348 12.62704304 -3 19 C-3.99 18.67 -4.98 18.34 -6 18 C-6 14.04 -6 10.08 -6 6 C-5.34 6 -4.68 6 -4 6 C-3.71125 5.38125 -3.4225 4.7625 -3.125 4.125 C-2 2 -2 2 0 0 Z " fill="#7FCC29" transform="translate(118,40)"/>
<path d="M0 0 C3.70704218 5.56056327 3.81942179 13.4338438 3 20 C1.92461049 22.46850775 0.79158581 23.9369618 -1 26 C-1.33 26 -1.66 26 -2 26 C-2.05849554 22.79174438 -2.09376162 19.58362767 -2.125 16.375 C-2.15013672 15.01955078 -2.15013672 15.01955078 -2.17578125 13.63671875 C-2.21201643 8.67249848 -1.96444146 4.65588093 0 0 Z " fill="#331C11" transform="translate(182,234)"/>
<path d="M0 0 C5.05938594 4.5124253 7.67075886 9.35379429 9 16 C10.32 16.33 11.64 16.66 13 17 C12.34 17 11.68 17 11 17 C11.10699219 17.59167969 11.21398437 18.18335938 11.32421875 18.79296875 C12.31560892 25.32761578 12.31560892 25.32761578 10.5625 29.0625 C10.046875 29.701875 9.53125 30.34125 9 31 C7.68 30.67 6.36 30.34 5 30 C5.49113281 29.60167969 5.98226562 29.20335937 6.48828125 28.79296875 C8.43183425 26.4878245 8.316536 25.2803281 8.1875 22.3125 C8.16042969 21.50425781 8.13335937 20.69601562 8.10546875 19.86328125 C8.07066406 19.24839844 8.03585938 18.63351562 8 18 C7.34 17.67 6.68 17.34 6 17 C5 14.8203125 5 14.8203125 4 12.125 C2.85696556 9.06202491 1.82887727 6.7433159 0 4 C0 2.68 0 1.36 0 0 Z " fill="#D07C29" transform="translate(127,281)"/>
<path d="M0 0 C0.99 0 1.98 0 3 0 C3 1.32 3 2.64 3 4 C3.66 4.33 4.32 4.66 5 5 C4.34 7.64 3.68 10.28 3 13 C3.66 13 4.32 13 5 13 C4.67 14.32 4.34 15.64 4 17 C4 16.34 4 15.68 4 15 C3.34 15 2.68 15 2 15 C0.64567325 13.68799596 -0.68733482 12.35368596 -2 11 C-2.66 10.67 -3.32 10.34 -4 10 C-4.33 9.34 -4.66 8.68 -5 8 C-4.0625 5.375 -4.0625 5.375 -3 3 C-2.34 3 -1.68 3 -1 3 C-0.67 2.01 -0.34 1.02 0 0 Z " fill="#7ECC25" transform="translate(88,83)"/>
<path d="M0 0 C0.66 0 1.32 0 2 0 C1.67 1.98 1.34 3.96 1 6 C0.34 6 -0.32 6 -1 6 C-1.65418353 8.99055327 -2.13761343 11.96285543 -2.5 15 C-2.86238657 18.03714457 -3.34581647 21.00944673 -4 24 C-6.63534505 21.36465495 -6.32850126 20.04840007 -6.375 16.375 C-6.27895193 9.71566686 -4.82878201 4.82878201 0 0 Z " fill="#8BB949" transform="translate(113,40)"/>
<path d="M0 0 C0.33 0 0.66 0 1 0 C1.12117188 1.29035156 1.24234375 2.58070313 1.3671875 3.91015625 C1.53612008 5.62763747 1.70540987 7.34508358 1.875 9.0625 C1.95363281 9.91005859 2.03226563 10.75761719 2.11328125 11.63085938 C2.61520859 16.63082783 3.29958481 21.25773097 5 26 C5.66 26.33 6.32 26.66 7 27 C7 27.99 7 28.98 7 30 C7.94978897 32.15028304 7.94978897 32.15028304 9 34 C5.27261229 32.55046033 3.42675877 30.61598534 1.6875 27.125 C-1.46819472 18.65912018 -0.31889562 8.88737572 0 0 Z " fill="#25120E" transform="translate(32,243)"/>
<path d="M0 0 C1.65 0 3.3 0 5 0 C1.49477129 3.58240805 -2.1158502 6.93639252 -5.9375 10.1875 C-6.93652344 11.04730469 -7.93554688 11.90710938 -8.96484375 12.79296875 C-11.96694546 14.9759642 -14.43643153 16.04936102 -18 17 C-17.67 15.68 -17.34 14.36 -17 13 C-16.34 13 -15.68 13 -15 13 C-15 12.34 -15 11.68 -15 11 C-14.01 11 -13.02 11 -12 11 C-11.67 10.34 -11.34 9.68 -11 9 C-8.4375 8.375 -8.4375 8.375 -6 8 C-6 7.34 -6 6.68 -6 6 C-5.01 6 -4.02 6 -3 6 C-2.690625 5.38125 -2.38125 4.7625 -2.0625 4.125 C-1.375 2.75 -0.6875 1.375 0 0 Z " fill="#82B345" transform="translate(131,121)"/>
<path d="M0 0 C0.66 0.33 1.32 0.66 2 1 C2.6328125 3.28515625 2.6328125 3.28515625 3.125 6.0625 C3.29257813 6.98160156 3.46015625 7.90070313 3.6328125 8.84765625 C3.75398438 9.55792969 3.87515625 10.26820313 4 11 C4.66 11 5.32 11 6 11 C6.33 12.32 6.66 13.64 7 15 C6.34 15 5.68 15 5 15 C3.98133771 13.34467377 2.98189187 11.67739862 2 10 C1.34 9.67 0.68 9.34 0 9 C0.33 13.29 0.66 17.58 1 22 C-2.3115779 15.37684421 -3.29195287 9.03735273 -1 1.875 C-0.67 1.25625 -0.34 0.6375 0 0 Z " fill="#CD7B2C" transform="translate(115,260)"/>
<path d="M0 0 C-0.33 1.98 -0.66 3.96 -1 6 C-1.66 6 -2.32 6 -3 6 C-3.33 6.99 -3.66 7.98 -4 9 C-6.24508043 11.80635053 -8.61046988 12.89840271 -12 14 C-12.99 14 -13.98 14 -15 14 C-13.07277893 11.65745532 -11.13424968 9.32621992 -9.1875 7 C-8.64029297 6.33226562 -8.09308594 5.66453125 -7.52929688 4.9765625 C-6.99755859 4.34492188 -6.46582031 3.71328125 -5.91796875 3.0625 C-5.43094482 2.47597656 -4.9439209 1.88945312 -4.44213867 1.28515625 C-3 0 -3 0 0 0 Z " fill="#87BF39" transform="translate(135,129)"/>
<path d="M0 0 C0.99 1.32 1.98 2.64 3 4 C2.01 6.31 1.02 8.62 0 11 C-2.97 11 -5.94 11 -9 11 C-9 9.68 -9 8.36 -9 7 C-6.525 7.99 -6.525 7.99 -4 9 C-3.8453125 7.6078125 -3.8453125 7.6078125 -3.6875 6.1875 C-2.9929808 2.96745642 -2.52259061 1.97420135 0 0 Z " fill="#341D14" transform="translate(43,313)"/>
<path d="M0 0 C4.59225513 10.37357631 4.59225513 10.37357631 4 16 C0.25474201 12.25474201 0.31090051 8.01729091 0 3 C-5.15516904 4.23724057 -8.61047221 5.90737815 -13 9 C-13.99 9.33 -14.98 9.66 -16 10 C-16 9.34 -16 8.68 -16 8 C-13.515625 6.0546875 -13.515625 6.0546875 -10.25 3.875 C-9.18265625 3.15054688 -8.1153125 2.42609375 -7.015625 1.6796875 C-4 0 -4 0 0 0 Z " fill="#91B658" transform="translate(131,29)"/>
<path d="M0 0 C-0.32597168 0.57073242 -0.65194336 1.14146484 -0.98779297 1.72949219 C-2.07403796 4.16607646 -2.2331027 5.68281107 -2.1953125 8.328125 C-2.18886719 9.12734375 -2.18242188 9.9265625 -2.17578125 10.75 C-2.15064453 11.9875 -2.15064453 11.9875 -2.125 13.25 C-2.11146484 14.51070313 -2.11146484 14.51070313 -2.09765625 15.796875 C-2.07415817 17.86470604 -2.03828908 19.93238995 -2 22 C-2.33 22 -2.66 22 -3 22 C-3.09087891 21.04287109 -3.09087891 21.04287109 -3.18359375 20.06640625 C-3.26738281 19.24011719 -3.35117188 18.41382813 -3.4375 17.5625 C-3.51871094 16.73878906 -3.59992188 15.91507812 -3.68359375 15.06640625 C-3.78930815 13.01337975 -3.78930815 13.01337975 -5 12 C-5.04080783 10.00041636 -5.04254356 7.99954746 -5 6 C-5.99 6 -6.98 6 -8 6 C-8.33 8.97 -8.66 11.94 -9 15 C-9.33 15 -9.66 15 -10 15 C-10.78279267 7.01551481 -10.78279267 7.01551481 -7.6875 3 C-5.05123092 1.03812534 -3.31590714 0 0 0 Z " fill="#C0752D" transform="translate(106,268)"/>
<path d="M0 0 C1.32 0.33 2.64 0.66 4 1 C3.979375 1.9075 3.95875 2.815 3.9375 3.75 C3.9889755 6.42672588 4.2215017 8.46988052 5 11 C5.9075 11.12375 6.815 11.2475 7.75 11.375 C10.58970323 11.92109677 12.52590591 12.57263803 15 14 C15 14.66 15 15.32 15 16 C6.40605686 16.26699629 6.40605686 16.26699629 3.22265625 13.3984375 C0.21861314 8.88801916 -0.55663075 5.3436552 0 0 Z " fill="#DC9043" transform="translate(78,300)"/>
<path d="M0 0 C-0.57352893 3.87132028 -2.48704352 6.08172796 -5 9 C-2.03 9 0.94 9 4 9 C3.01 10.485 3.01 10.485 2 12 C0.125 12.328125 0.125 12.328125 -2 12.25 C-2.70125 12.23453125 -3.4025 12.2190625 -4.125 12.203125 C-6 12 -6 12 -8 11 C-7.73799687 5.67260293 -7.73799687 5.67260293 -7 3 C-4.56990326 1.00607447 -3.16090285 0 0 0 Z " fill="#83C432" transform="translate(126,141)"/>
<path d="M0 0 C0.66 0 1.32 0 2 0 C3.18771723 3.42943519 2.80226223 5.37784675 1.5625 8.75 C1.13130859 9.94882813 1.13130859 9.94882813 0.69140625 11.171875 C0.46324219 11.77515625 0.23507813 12.3784375 0 13 C4.06815373 11.15083921 7.0094833 9.33557632 10 6 C10 9 10 9 8.64453125 10.5703125 C2.57281076 15.72285995 2.57281076 15.72285995 -2 16 C-2.2396943 10.36718401 -1.38529821 5.45461169 0 0 Z " fill="#8BB052" transform="translate(121,56)"/>
<path d="M0 0 C0.66 0.99 1.32 1.98 2 3 C1.5390625 5.26171875 1.5390625 5.26171875 0.625 7.6875 C0.32851563 8.49574219 0.03203125 9.30398438 -0.2734375 10.13671875 C-0.51320313 10.75160156 -0.75296875 11.36648438 -1 12 C-1.78375 11.79375 -2.5675 11.5875 -3.375 11.375 C-4.24125 11.25125 -5.1075 11.1275 -6 11 C-6.66 11.66 -7.32 12.32 -8 13 C-7.48118887 8.8275894 -6.28848726 6.74583179 -3.4375 3.6875 C-2.79683594 2.99011719 -2.15617187 2.29273438 -1.49609375 1.57421875 C-1.00238281 1.05472656 -0.50867187 0.53523438 0 0 Z " fill="#301E18" transform="translate(40,310)"/>
<path d="M0 0 C0 0.66 0 1.32 0 2 C-4.95 1.67 -9.9 1.34 -15 1 C-15 1.66 -15 2.32 -15 3 C-18.28491373 5.18994248 -19.83095639 5.35277339 -23.6875 5.625 C-25.17830078 5.73714844 -25.17830078 5.73714844 -26.69921875 5.8515625 C-27.45847656 5.90054688 -28.21773437 5.94953125 -29 6 C-25.50007882 3.10115224 -23.56830973 2.68852434 -19 3 C-19 2.34 -19 1.68 -19 1 C-12.58730201 -0.62862171 -6.47418734 -2.15806245 0 0 Z " fill="#85C33A" transform="translate(159,100)"/>
<path d="M0 0 C1.05960937 0.09087891 1.05960937 0.09087891 2.140625 0.18359375 C12.41630344 1.02268809 22.70239204 1.51746005 33 2 C33 2.33 33 2.66 33 3 C28.7641643 3.02469321 24.52836658 3.04285671 20.29248047 3.05493164 C18.8510668 3.05996474 17.40965824 3.06679173 15.96826172 3.07543945 C13.89809915 3.08754983 11.82800399 3.09323847 9.7578125 3.09765625 C8.5114502 3.10289307 7.26508789 3.10812988 5.98095703 3.11352539 C3 3 3 3 1 2 C0.67 2.99 0.34 3.98 0 5 C0 3.35 0 1.7 0 0 Z " fill="#CE7C2D" transform="translate(79,298)"/>
<path d="M0 0 C0.66 0 1.32 0 2 0 C1.67 3.96 1.34 7.92 1 12 C2.546875 10.824375 2.546875 10.824375 4.125 9.625 C7.28098738 7.35603148 10.21815519 6.01464129 14 5 C10.5103248 8.59231271 7.03355127 12.01867949 3 15 C2.01 14.67 1.02 14.34 0 14 C-1.39151652 9.20699867 -0.68662689 4.84864218 0 0 Z " fill="#87AC50" transform="translate(104,131)"/>
<path d="M0 0 C0.33 0 0.66 0 1 0 C1.04898438 1.25296875 1.09796875 2.5059375 1.1484375 3.796875 C1.22348583 5.44793821 1.29903277 7.09897881 1.375 8.75 C1.4059375 9.575 1.436875 10.4 1.46875 11.25 C1.50742187 12.04921875 1.54609375 12.8484375 1.5859375 13.671875 C1.6173584 14.4050293 1.6487793 15.13818359 1.68115234 15.89355469 C2.03809788 18.25169107 2.8975821 19.90126157 4 22 C4 24.33333333 4 26.66666667 4 29 C1.64551835 26.44931155 1.01672076 25.28982642 0.8125 21.75 C0.874375 20.8425 0.93625 19.935 1 19 C0.34 19 -0.32 19 -1 19 C-1.02714735 16.77090129 -1.04646254 14.54170633 -1.0625 12.3125 C-1.07990234 10.45044922 -1.07990234 10.45044922 -1.09765625 8.55078125 C-1.01478673 5.53764546 -0.70839449 2.91724661 0 0 Z " fill="#83C03A" transform="translate(59,72)"/>
<path d="M0 0 C3 1 3 1 4.5 3.875 C4.995 4.90625 5.49 5.9375 6 7 C7.49985609 8.66710346 7.49985609 8.66710346 9 10 C11 13 11 13 11 16 C12.32 16.33 13.64 16.66 15 17 C15.33 16.34 15.66 15.68 16 15 C15.67 16.65 15.34 18.3 15 20 C12.37044635 19.63982572 11.26735796 19.31961672 9.53613281 17.25 C9.09624023 16.5075 8.65634766 15.765 8.203125 15 C7.71972656 14.195625 7.23632812 13.39125 6.73828125 12.5625 C6.24714844 11.716875 5.75601563 10.87125 5.25 10 C4.74339844 9.154375 4.23679687 8.30875 3.71484375 7.4375 C0 1.1893531 0 1.1893531 0 0 Z " fill="#89AF56" transform="translate(79,91)"/>
<path d="M0 0 C1.1875 1.875 1.1875 1.875 0.875 4.5625 C0.648125 5.325625 0.42125 6.08875 0.1875 6.875 C-2.92477195 6.875 -5.75402152 6.41872951 -8.8125 5.875 C-9.1425 4.555 -9.4725 3.235 -9.8125 1.875 C-2.92432109 -1.81509585 -2.92432109 -1.81509585 0 0 Z " fill="#34241D" transform="translate(134.8125,319.125)"/>
<path d="M0 0 C3.36143418 1.12047806 4.57528834 2.49707183 7 5 C7.66 5.33 8.32 5.66 9 6 C9 6.66 9 7.32 9 8 C11.31 8.33 13.62 8.66 16 9 C16 9.66 16 10.32 16 11 C8.23214286 11.66964286 8.23214286 11.66964286 4.625 8.6875 C0 3.95238095 0 3.95238095 0 0 Z " fill="#2A1A18" transform="translate(166,313)"/>
<path d="M0 0 C-2.87313408 0.95771136 -4.50445206 1.09652642 -7.47143555 1.02172852 C-8.37214279 1.00163223 -9.27285004 0.98153595 -10.20085144 0.96083069 C-11.16968765 0.93379562 -12.13852386 0.90676056 -13.13671875 0.87890625 C-14.62858452 0.84348976 -14.62858452 0.84348976 -16.15058899 0.80735779 C-19.32970506 0.73073623 -22.50857663 0.64670512 -25.6875 0.5625 C-27.84178488 0.50927782 -29.99608172 0.45653743 -32.15039062 0.40429688 C-37.4337453 0.27512312 -42.71691811 0.13986412 -48 0 C-48 -0.33 -48 -0.66 -48 -1 C-41.64659908 -1.19352442 -35.29289581 -1.37094927 -28.9387207 -1.53710938 C-26.77650747 -1.59556074 -24.61439113 -1.65771723 -22.45239258 -1.72363281 C-19.3473474 -1.81766033 -16.24219924 -1.89842119 -13.13671875 -1.9765625 C-12.16788254 -2.00875885 -11.19904633 -2.0409552 -10.20085144 -2.0741272 C-9.3001442 -2.09429901 -8.39943695 -2.11447083 -7.47143555 -2.13525391 C-6.67867722 -2.15746002 -5.88591888 -2.17966614 -5.06913757 -2.20254517 C-3 -2 -3 -2 0 0 Z " fill="#271209" transform="translate(184,166)"/>
<path d="M0 0 C0.66 0 1.32 0 2 0 C2.103125 0.639375 2.20625 1.27875 2.3125 1.9375 C2.539375 2.618125 2.76625 3.29875 3 4 C3.99 4.33 4.98 4.66 6 5 C7.1875 7.0625 7.1875 7.0625 8 9 C8.66 9 9.32 9 10 9 C10.33 8.34 10.66 7.68 11 7 C11.66 7 12.32 7 13 7 C13.33 8.32 13.66 9.64 14 11 C13.01 11.66 12.02 12.32 11 13 C5.76250775 10.38125388 2.83811968 8.33566499 0 3 C0 2.01 0 1.02 0 0 Z " fill="#94BE41" transform="translate(62,18)"/>
<path d="M0 0 C3 1 3 1 4.203125 3.1796875 C4.54859375 4.06914063 4.8940625 4.95859375 5.25 5.875 C5.60578125 6.75929688 5.9615625 7.64359375 6.328125 8.5546875 C7 11 7 11 6 14 C4.68 12.02 3.36 10.04 2 8 C2 10.64 2 13.28 2 16 C0.38766212 13.11095375 -0.3482891 10.72395319 -0.6875 7.4375 C-0.77386719 6.67308594 -0.86023438 5.90867187 -0.94921875 5.12109375 C-1 3 -1 3 0 0 Z " fill="#7EB63A" transform="translate(72,77)"/>
<path d="M0 0 C0.66 0 1.32 0 2 0 C2 1.32 2 2.64 2 4 C2.66 4 3.32 4 4 4 C3.45276317 7.37462715 2.9451 9.08235 1 12 C-0.32 11.67 -1.64 11.34 -3 11 C-2.11223998 7.30099992 -1.05418136 3.65449539 0 0 Z " fill="#2F1912" transform="translate(178,262)"/>
<path d="M0 0 C0.33 0 0.66 0 1 0 C1.05449838 1.72880982 1.09301688 3.45812712 1.125 5.1875 C1.14820313 6.15042969 1.17140625 7.11335938 1.1953125 8.10546875 C0.9913544 11.12812778 0.26874632 13.26769985 -1 16 C-2.90381529 12.7000535 -3.84711582 9.82210448 -4 6 C-2.125 2.625 -2.125 2.625 0 0 Z " fill="#34231F" transform="translate(184,254)"/>
<path d="M0 0 C2.23915618 3.35873427 3.69032729 6.8389434 5.1875 10.5625 C5.47302734 11.24763672 5.75855469 11.93277344 6.05273438 12.63867188 C6.76394161 14.4019813 7.38874045 16.19960071 8 18 C7.67 18.66 7.34 19.32 7 20 C6.34 20 5.68 20 5 20 C4.67 18.02 4.34 16.04 4 14 C3.34 14 2.68 14 2 14 C2 12.35 2 10.7 2 9 C1.34 9 0.68 9 0 9 C0 6.03 0 3.06 0 0 Z " fill="#85B144" transform="translate(74,88)"/>
<path d="M0 0 C0.33 0 0.66 0 1 0 C1 2.97 1 5.94 1 9 C0.01 9 -0.98 9 -2 9 C-3.32 11.64 -4.64 14.28 -6 17 C-6.33 17 -6.66 17 -7 17 C-6.49202991 12.6822542 -5.80317221 8.96697886 -4 5 C-3.34 5 -2.68 5 -2 5 C-1.855625 4.360625 -1.71125 3.72125 -1.5625 3.0625 C-1 1 -1 1 0 0 Z M-1 5 C0 7 0 7 0 7 Z " fill="#83AE3E" transform="translate(123,45)"/>
<path d="M0 0 C0.66 0 1.32 0 2 0 C2.268125 1.134375 2.53625 2.26875 2.8125 3.4375 C3.204375 4.613125 3.59625 5.78875 4 7 C4.99 7.33 5.98 7.66 7 8 C8.41693757 10.83387515 8.1699013 13.28029373 8.1875 16.4375 C8.20167969 17.59121094 8.21585938 18.74492188 8.23046875 19.93359375 C8 23 8 23 6 26 C6.33 21.05 6.66 16.1 7 11 C6.01 11.33 5.02 11.66 4 12 C4 10.68 4 9.36 4 8 C3.01 7.67 2.02 7.34 1 7 C1.33 5.68 1.66 4.36 2 3 C1.34 2.67 0.68 2.34 0 2 C0 1.34 0 0.68 0 0 Z " fill="#89B945" transform="translate(89,80)"/>
<path d="M0 0 C1.6116969 4.83509069 -0.84177486 8.56895369 -3 13 C-4.87225381 16.0976462 -6.87656294 19.06965686 -9 22 C-9.33 20.68 -9.66 19.36 -10 18 C-9.34 18 -8.68 18 -8 18 C-7.67 16.35 -7.34 14.7 -7 13 C-6.01 12.67 -5.02 12.34 -4 12 C-4 10.35 -4 8.7 -4 7 C-3.34 7 -2.68 7 -2 7 C-1.34 4.69 -0.68 2.38 0 0 Z " fill="#8DB750" transform="translate(157,122)"/>
<path d="M0 0 C0.99 0 1.98 0 3 0 C4.66040335 4.98121006 4.88785839 7.77150058 4 13 C3.34 13 2.68 13 2 13 C1.67 10.69 1.34 8.38 1 6 C0.34 7.32 -0.32 8.64 -1 10 C-1.66 10 -2.32 10 -3 10 C-2.01 6.7 -1.02 3.4 0 0 Z " fill="#82BF33" transform="translate(122,40)"/>
<path d="M0 0 C0.33 0 0.66 0 1 0 C1.12117188 0.92683594 1.24234375 1.85367187 1.3671875 2.80859375 C1.53476563 4.00613281 1.70234375 5.20367187 1.875 6.4375 C2.03742188 7.63246094 2.19984375 8.82742188 2.3671875 10.05859375 C2.57601562 11.02925781 2.78484375 11.99992187 3 13 C3.66 13.33 4.32 13.66 5 14 C5 11.03 5 8.06 5 5 C5.33 5 5.66 5 6 5 C6.05416188 6.60379341 6.09286638 8.20811406 6.125 9.8125 C6.14820312 10.70582031 6.17140625 11.59914063 6.1953125 12.51953125 C6 15 6 15 4 18 C3.34 18 2.68 18 2 18 C0.176679 11.84629161 -0.2361959 6.40353322 0 0 Z " fill="#DB8631" transform="translate(97,276)"/>
<path d="M0 0 C1.65 0.33 3.3 0.66 5 1 C4.360625 1.20625 3.72125 1.4125 3.0625 1.625 C0.72837208 2.85121018 0.72837208 2.85121018 0.3125 5.625 C0.209375 6.73875 0.10625 7.8525 0 9 C-0.18366456 10.45882134 -0.37122276 11.91715729 -0.5625 13.375 C-0.706875 14.57125 -0.85125 15.7675 -1 17 C-1.66 17 -2.32 17 -3 17 C-3.40368295 10.54107286 -2.5915262 5.93891422 0 0 Z " fill="#8AB050" transform="translate(64,0)"/>
<path d="M0 0 C0.625 1.8125 0.625 1.8125 1 4 C0.01 5.485 0.01 5.485 -1 7 C-1 6.34 -1 5.68 -1 5 C-3.31 5.33 -5.62 5.66 -8 6 C-8.66 5.01 -9.32 4.02 -10 3 C-3.375 0 -3.375 0 0 0 Z " fill="#68381A" transform="translate(135,312)"/>
<path d="M0 0 C0.33 1.32 0.66 2.64 1 4 C-0.23553276 5.20254524 -1.48902339 6.38666232 -2.75 7.5625 C-3.79414063 8.55443359 -3.79414063 8.55443359 -4.859375 9.56640625 C-7 11 -7 11 -9.265625 10.71484375 C-9.83796875 10.47894531 -10.4103125 10.24304688 -11 10 C-10.443125 9.608125 -9.88625 9.21625 -9.3125 8.8125 C-6.65382629 6.72867466 -4.3558817 4.41787858 -2 2 C-1.34 1.34 -0.68 0.68 0 0 Z " fill="#291815" transform="translate(176,275)"/>
<path d="M0 0 C0.33 0 0.66 0 1 0 C1.3690205 11.52164009 1.3690205 11.52164009 -1 17 C-2.32 16.67 -3.64 16.34 -5 16 C-5 15.34 -5 14.68 -5 14 C-4.34 14 -3.68 14 -3 14 C-2.01 9.38 -1.02 4.76 0 0 Z " fill="#81BE35" transform="translate(95,91)"/>
<path d="M0 0 C0.33 0.66 0.66 1.32 1 2 C0.67 2.99 0.34 3.98 0 5 C-0.29098034 10.04936467 -0.31036161 15.08614397 1 20 C-1.0078125 19.0078125 -1.0078125 19.0078125 -3 17 C-3.18590049 14.11554408 -3.15442257 11.71413288 -2.875 8.875 C-2.82601562 8.13378906 -2.77703125 7.39257812 -2.7265625 6.62890625 C-2.57487295 4.74312933 -2.29677764 2.86844516 -2 1 C-1.34 0.67 -0.68 0.34 0 0 Z " fill="#592C07" transform="translate(114,260)"/>
<path d="M0 0 C0.99 0.495 0.99 0.495 2 1 C1.97679688 1.56847656 1.95359375 2.13695312 1.9296875 2.72265625 C1.80838116 7.91283462 2.52571212 11.9874212 4 17 C3.625 19.4375 3.625 19.4375 3 21 C0.20558799 16.29130574 -0.39036978 12.49324646 -0.1875 7.125 C-0.17396484 6.43664062 -0.16042969 5.74828125 -0.14648438 5.0390625 C-0.1114837 3.35902999 -0.05768954 1.6794065 0 0 Z " fill="#683107" transform="translate(95,273)"/>
<path d="M0 0 C0.66 0 1.32 0 2 0 C2.33 0.66 2.66 1.32 3 2 C5.01669827 3.13350534 5.01669827 3.13350534 7 4 C7.66 3.34 8.32 2.68 9 2 C8.67 3.65 8.34 5.3 8 7 C7.34 7 6.68 7 6 7 C5.34 7.66 4.68 8.32 4 9 C3.67 7.68 3.34 6.36 3 5 C2.34 5.99 1.68 6.98 1 8 C0.67 5.36 0.34 2.72 0 0 Z " fill="#41281D" transform="translate(172,222)"/>
<path d="M0 0 C1.9375 0.3125 1.9375 0.3125 4 1 C4.33 1.99 4.66 2.98 5 4 C3.40139351 4.55786268 1.79582095 5.09579568 0.1875 5.625 C-0.70582031 5.92664063 -1.59914062 6.22828125 -2.51953125 6.5390625 C-5 7 -5 7 -8 5 C-5.36 4.01 -2.72 3.02 0 2 C0 1.34 0 0.68 0 0 Z " fill="#261816" transform="translate(190,170)"/>
<path d="M0 0 C0.33 0.99 0.66 1.98 1 3 C-0.4375 5.6875 -0.4375 5.6875 -2 8 C1.63 8.33 5.26 8.66 9 9 C9 9.33 9 9.66 9 10 C4.71 10 0.42 10 -4 10 C-4.33 9.01 -4.66 8.02 -5 7 C-4.00390625 5.17578125 -4.00390625 5.17578125 -2.5625 3.3125 C-2.08941406 2.68988281 -1.61632812 2.06726563 -1.12890625 1.42578125 C-0.75636719 0.95527344 -0.38382812 0.48476562 0 0 Z " fill="#8BA959" transform="translate(118,145)"/>
<path d="M0 0 C0.33 0.99 0.66 1.98 1 3 C0.4225 3.515625 -0.155 4.03125 -0.75 4.5625 C-4.26584116 8.37132792 -7.16497765 12.78111028 -8 18 C-8.66 18 -9.32 18 -10 18 C-8.18535884 10.68958847 -4.89452312 5.67228295 0 0 Z " fill="#8CAF5A" transform="translate(115,111)"/>
<path d="M0 0 C0.66 0 1.32 0 2 0 C3.06351675 3.38391693 3.21442982 4.5804634 1.5625 7.8125 C1.046875 8.534375 0.53125 9.25625 0 10 C0.66 10.33 1.32 10.66 2 11 C1.360625 11.12375 0.72125 11.2475 0.0625 11.375 C-0.618125 11.58125 -1.29875 11.7875 -2 12 C-2.33 12.66 -2.66 13.32 -3 14 C-2.25 7.375 -2.25 7.375 0 4 C0 2.68 0 1.36 0 0 Z " fill="#281713" transform="translate(50,285)"/>
<path d="M0 0 C0.66 0 1.32 0 2 0 C1.7215625 0.55300781 1.443125 1.10601562 1.15625 1.67578125 C0.35218191 3.29206676 -0.43854072 4.91503207 -1.21875 6.54296875 C-1.6415625 7.41566406 -2.064375 8.28835937 -2.5 9.1875 C-2.9228125 10.06792969 -3.345625 10.94835937 -3.78125 11.85546875 C-5 14 -5 14 -7 15 C-6.41512359 10.99251347 -5.15605425 8.14263232 -3.0625 4.6875 C-2.53785156 3.80449219 -2.01320313 2.92148438 -1.47265625 2.01171875 C-0.98667969 1.34785156 -0.50070313 0.68398437 0 0 Z " fill="#86C239" transform="translate(114,114)"/>
<path d="M0 0 C0.99 0.33 1.98 0.66 3 1 C3 1.66 3 2.32 3 3 C3.99 3.33 4.98 3.66 6 4 C6 4.66 6 5.32 6 6 C8.475 6.99 8.475 6.99 11 8 C11 8.66 11 9.32 11 10 C6.39137539 8.50897439 3.46669756 6.30545582 0 3 C0 2.01 0 1.02 0 0 Z " fill="#86B44A" transform="translate(65,104)"/>
<path d="M0 0 C0.33 0 0.66 0 1 0 C1 1.98 1 3.96 1 6 C-4.625 9 -4.625 9 -8 9 C-6.69088122 7.49704815 -5.37761608 5.99770689 -4.0625 4.5 C-3.33160156 3.6646875 -2.60070312 2.829375 -1.84765625 1.96875 C-1.23792969 1.3190625 -0.62820312 0.669375 0 0 Z " fill="#81B843" transform="translate(128,134)"/>
<path d="M0 0 C2.72426311 2.35277269 3.8141763 4.62496331 5 8 C4.01 7.67 3.02 7.34 2 7 C0.8125 3.4375 0.8125 3.4375 0 0 Z M0 5 C0.99 6.32 1.98 7.64 3 9 C2.34 9.66 1.68 10.32 1 11 C0.01 10.67 -0.98 10.34 -2 10 C-2.33 9.01 -2.66 8.02 -3 7 C-2.01 6.34 -1.02 5.68 0 5 Z " fill="#301A14" transform="translate(174,306)"/>
<path d="M0 0 C1.32 0.33 2.64 0.66 4 1 C3.34 1 2.68 1 2 1 C2.10699219 1.59167969 2.21398437 2.18335938 2.32421875 2.79296875 C3.31560892 9.32761578 3.31560892 9.32761578 1.5625 13.0625 C1.046875 13.701875 0.53125 14.34125 0 15 C-1.32 14.67 -2.64 14.34 -4 14 C-2.625 12.5 -2.625 12.5 -1 11 C-0.34 11 0.32 11 1 11 C0.67 7.37 0.34 3.74 0 0 Z " fill="#C6864B" transform="translate(136,297)"/>
<path d="M0 0 C0.33 0.66 0.66 1.32 1 2 C0.67 2.99 0.34 3.98 0 5 C0.66 5.66 1.32 6.32 2 7 C-0.97 6.505 -0.97 6.505 -4 6 C-4.33 6.66 -4.66 7.32 -5 8 C-3.68 8.33 -2.36 8.66 -1 9 C-2.65 9 -4.3 9 -6 9 C-6 5 -6 5 -4.6875 3.515625 C-3.125 2.34375 -1.5625 1.171875 0 0 Z " fill="#33231F" transform="translate(29,166)"/>
<path d="M0 0 C0.66 0.33 1.32 0.66 2 1 C3.53371415 5.60114246 3.55386882 10.1950082 3 15 C1 17.6875 1 17.6875 -1 19 C-1.66 18.01 -2.32 17.02 -3 16 C-2.01 15.67 -1.02 15.34 0 15 C2.19218189 10.61563621 1.15774649 4.63098598 0 0 Z " fill="#8FB15E" transform="translate(80,10)"/>
<path d="M0 0 C-2.94266089 1.96177393 -4.12432473 2.36742347 -7.5 2.75 C-8.66015625 2.89695312 -8.66015625 2.89695312 -9.84375 3.046875 C-12 3 -12 3 -15 1 C-9.4584498 -0.96263236 -5.79141983 -1.01603857 0 0 Z " fill="#140504" transform="translate(115,322)"/>
<path d="M0 0 C1.60875 0.2784375 1.60875 0.2784375 3.25 0.5625 C6.40391546 0.9304568 8.09818492 1.04465343 11 0 C10.34 1.32 9.68 2.64 9 4 C6.03 4 3.06 4 0 4 C0 2.68 0 1.36 0 0 Z " fill="#1B0A08" transform="translate(34,320)"/>
<path d="M0 0 C0.33 0.66 0.66 1.32 1 2 C-0.98 4.97 -0.98 4.97 -3 8 C-3.66 7.34 -4.32 6.68 -5 6 C-6.32 6 -7.64 6 -9 6 C-8.34 4.68 -7.68 3.36 -7 2 C-4 2 -4 2 -2 3 C-1.34 2.01 -0.68 1.02 0 0 Z " fill="#3F2B23" transform="translate(181,270)"/>
<path d="M0 0 C3.71888239 0.50712033 6.73454239 1.11608215 10 3 C10 3.66 10 4.32 10 5 C6.7 4.67 3.4 4.34 0 4 C0 2.68 0 1.36 0 0 Z " fill="#CF7D2E" transform="translate(83,311)"/>
<path d="M0 0 C0.99 0.33 1.98 0.66 3 1 C3 2.98 3 4.96 3 7 C1.02 6.01 -0.96 5.02 -3 4 C-2.67 3.01 -2.34 2.02 -2 1 C-1.34 0.67 -0.68 0.34 0 0 Z " fill="#301C16" transform="translate(177,220)"/>
<path d="M0 0 C5.53846154 0.49230769 5.53846154 0.49230769 7.875 3.0625 C8.431875 4.0215625 8.431875 4.0215625 9 5 C8.67 5.66 8.34 6.32 8 7 C4.95139986 5.98379995 4.13333078 5.22608429 2 3 C1.34 2.67 0.68 2.34 0 2 C0 1.34 0 0.68 0 0 Z " fill="#221311" transform="translate(34,176)"/>
<path d="M0 0 C-0.33 0.99 -0.66 1.98 -1 3 C-1 2.34 -1 1.68 -1 1 C-4.14191424 2.53604696 -7.08596738 4.05731159 -10 6 C-9.625 3.5625 -9.625 3.5625 -9 1 C-6.04335481 -0.4783226 -3.25770263 -0.06032783 0 0 Z " fill="#552609" transform="translate(107,267)"/>
<path d="M0 0 C0.33 1.32 0.66 2.64 1 4 C0.34 4 -0.32 4 -1 4 C-1 5.65 -1 7.3 -1 9 C-1.99 8.67 -2.98 8.34 -4 8 C-3.67 5.69 -3.34 3.38 -3 1 C-2.01 1.33 -1.02 1.66 0 2 C0 1.34 0 0.68 0 0 Z " fill="#84C537" transform="translate(148,136)"/>
<path d="M0 0 C3 1 3 1 4.5 3.875 C4.995 4.90625 5.49 5.9375 6 7 C6.98165594 8.01801357 7.97591432 9.0246803 9 10 C9 10.66 9 11.32 9 12 C5.19680631 10.73226877 4.7757663 9.41269006 2.8125 6 C2.28269531 5.0925 1.75289063 4.185 1.20703125 3.25 C0 1 0 1 0 0 Z " fill="#84B042" transform="translate(79,91)"/>
<path d="M0 0 C0 0.99 0 1.98 0 3 C-0.99 3.33 -1.98 3.66 -3 4 C-3.28875 4.66 -3.5775 5.32 -3.875 6 C-5 8 -5 8 -7.625 8.75 C-8.40875 8.8325 -9.1925 8.915 -10 9 C-8.66117343 6.32234686 -6.81360498 5.18217844 -4.4375 3.375 C-3.61121094 2.74335937 -2.78492188 2.11171875 -1.93359375 1.4609375 C-1.29550781 0.97882812 -0.65742188 0.49671875 0 0 Z " fill="#85C13C" transform="translate(131,60)"/>
<path d="M0 0 C3.3 0.66 6.6 1.32 10 2 C10 2.33 10 2.66 10 3 C8.54263913 3.19491452 7.08405407 3.38069358 5.625 3.5625 C4.81289062 3.66691406 4.00078125 3.77132813 3.1640625 3.87890625 C1 4 1 4 -1 3 C-0.67 2.01 -0.34 1.02 0 0 Z " fill="#5F3312" transform="translate(84,314)"/>
<path d="M0 0 C0.99 0.33 1.98 0.66 3 1 C5.14255793 0.61067144 5.14255793 0.61067144 7 0 C4.64531545 2.72647685 2.4591583 3.98756342 -1 5 C-3.3125 4.625 -3.3125 4.625 -5 4 C-4.34 4 -3.68 4 -3 4 C-3 3.34 -3 2.68 -3 2 C-2.01 1.34 -1.02 0.68 0 0 Z " fill="#513222" transform="translate(155,285)"/>
<path d="M0 0 C2.52588702 2.36292656 3.88820837 3.66462511 5 7 C4.34 7 3.68 7 3 7 C2.67 7.66 2.34 8.32 2 9 C-0.29013653 5.5647952 -0.17842973 4.014669 0 0 Z " fill="#8CCB3D" transform="translate(68,73)"/>
<path d="M0 0 C0.66 0 1.32 0 2 0 C2.33 1.32 2.66 2.64 3 4 C2.01 4.66 1.02 5.32 0 6 C-4.875 3.25 -4.875 3.25 -6 1 C-3.525 1.495 -3.525 1.495 -1 2 C-0.67 1.34 -0.34 0.68 0 0 Z " fill="#92B64E" transform="translate(73,25)"/>
<path d="M0 0 C0.99 1.32 1.98 2.64 3 4 C2.67 4.66 2.34 5.32 2 6 C-0.64 5.67 -3.28 5.34 -6 5 C-6 4.67 -6 4.34 -6 4 C-4.35 4 -2.7 4 -1 4 C-0.67 2.68 -0.34 1.36 0 0 Z " fill="#90B355" transform="translate(82,110)"/>
<path d="M0 0 C4.95 0.99 4.95 0.99 10 2 C10 2.66 10 3.32 10 4 C2.25 4.125 2.25 4.125 0 3 C0 2.01 0 1.02 0 0 Z " fill="#0E0605" transform="translate(172,320)"/>
<path d="M0 0 C0.66 0.33 1.32 0.66 2 1 C2.40729228 3.32156597 2.74438677 5.6568787 3 8 C1.29115995 6.37660195 -0.37446717 4.70680947 -2 3 C-2 2.34 -2 1.68 -2 1 C-1.34 0.67 -0.68 0.34 0 0 Z " fill="#2B1A16" transform="translate(154,297)"/>
<path d="M0 0 C-0.639375 0.309375 -1.27875 0.61875 -1.9375 0.9375 C-3.93610821 1.8345163 -3.93610821 1.8345163 -5 3 C-7.67058851 3.14115161 -10.32432238 3.04247107 -13 3 C-12.67 2.34 -12.34 1.68 -12 1 C-7.96960118 0.06269795 -4.12580711 -0.0982335 0 0 Z " fill="#28110D" transform="translate(150,294)"/>
<path d="M0 0 C2 3 2 3 1.75 6.0625 C1 9 1 9 -1 11 C-1.66 11 -2.32 11 -3 11 C-2.690625 10.484375 -2.38125 9.96875 -2.0625 9.4375 C-0.70940713 6.33334577 -0.38640576 3.34884993 0 0 Z " fill="#582C08" transform="translate(104,283)"/>
<path d="M0 0 C0.90492187 0.38285156 1.80984375 0.76570313 2.7421875 1.16015625 C4.10730469 1.73056641 4.10730469 1.73056641 5.5 2.3125 C6.19867188 2.61285156 6.89734375 2.91320313 7.6171875 3.22265625 C4.32022645 4.32164327 3.21223847 4.09390069 -0.0703125 3.28515625 C-1.28267578 2.99318359 -1.28267578 2.99318359 -2.51953125 2.6953125 C-3.44185547 2.46134766 -3.44185547 2.46134766 -4.3828125 2.22265625 C-4.3828125 1.56265625 -4.3828125 0.90265625 -4.3828125 0.22265625 C-2.3828125 -0.77734375 -2.3828125 -0.77734375 0 0 Z " fill="#95B863" transform="translate(65.3828125,60.77734375)"/>
<path d="M0 0 C-0.33 2.31 -0.66 4.62 -1 7 C-1.33 5.68 -1.66 4.36 -2 3 C-2.66 3 -3.32 3 -4 3 C-4.99 3 -5.98 3 -7 3 C-7 2.34 -7 1.68 -7 1 C-4.53721199 -0.231394 -2.7204945 -0.07159196 0 0 Z " fill="#89C738" transform="translate(131,32)"/>
<path d="M0 0 C0.99 0 1.98 0 3 0 C3.33 1.32 3.66 2.64 4 4 C3.01 4.33 2.02 4.66 1 5 C1 4.34 1 3.68 1 3 C-1.31 3 -3.62 3 -6 3 C-6 2.67 -6 2.34 -6 2 C-4.02 1.67 -2.04 1.34 0 1 C0 0.67 0 0.34 0 0 Z " fill="#1F1410" transform="translate(181,319)"/>
<path d="M0 0 C0.66 0 1.32 0 2 0 C2 0.66 2 1.32 2 2 C2.66 2 3.32 2 4 2 C4.33 4.31 4.66 6.62 5 9 C4.34 7.68 3.68 6.36 3 5 C2.34 5 1.68 5 1 5 C0.67 3.35 0.34 1.7 0 0 Z " fill="#612E06" transform="translate(118,266)"/>
<path d="M0 0 C2.6465335 2.6465335 3.59941997 5.56221264 5 9 C4.01 9.495 4.01 9.495 3 10 C-0.22265625 4.82421875 -0.22265625 4.82421875 -1 3 C-0.67 2.01 -0.34 1.02 0 0 Z " fill="#5B2905" transform="translate(133,287)"/>
<path d="M0 0 C0.99 0.33 1.98 0.66 3 1 C3 1.66 3 2.32 3 3 C0.66785852 4.20628008 -1.49642139 5.1654738 -4 6 C-4 5.01 -4 4.02 -4 3 C-2.1875 1.25 -2.1875 1.25 0 0 Z " fill="#3B1D11" transform="translate(163,284)"/>
<path d="M0 0 C2.49361571 1.20381448 4.68143083 2.45428722 7 4 C7 4.66 7 5.32 7 6 C3.75728494 5.4409112 2.06942576 4.5867822 0 2 C0 1.34 0 0.68 0 0 Z " fill="#221311" transform="translate(42,279)"/>
<path d="M0 0 C0.66 0 1.32 0 2 0 C2.33 1.98 2.66 3.96 3 6 C1.68 6 0.36 6 -1 6 C-0.67 4.02 -0.34 2.04 0 0 Z " fill="#3D2014" transform="translate(178,262)"/>
<path d="M0 0 C0.99 0 1.98 0 3 0 C2.8125 1.875 2.8125 1.875 2 4 C-0.5625 5.25 -0.5625 5.25 -3 6 C-2.67 4.68 -2.34 3.36 -2 2 C-1.34 2 -0.68 2 0 2 C0 1.34 0 0.68 0 0 Z " fill="#82C139" transform="translate(116,132)"/>
<path d="M0 0 C1.22589844 0.29197266 1.22589844 0.29197266 2.4765625 0.58984375 C3.41628906 0.82380859 3.41628906 0.82380859 4.375 1.0625 C4.375 1.3925 4.375 1.7225 4.375 2.0625 C0.745 2.0625 -2.885 2.0625 -6.625 2.0625 C-6.625 1.4025 -6.625 0.7425 -6.625 0.0625 C-3.99249612 -1.25375194 -2.82320944 -0.68563658 0 0 Z " fill="#EB8924" transform="translate(99.625,313.9375)"/>
<path d="M0 0 C1.7074998 1.28062485 3.37373596 2.61767557 5 4 C5 4.66 5 5.32 5 6 C3.68 6.33 2.36 6.66 1 7 C0.67 4.69 0.34 2.38 0 0 Z " fill="#CE7825" transform="translate(122,275)"/>
<path d="M0 0 C0.66 0.33 1.32 0.66 2 1 C1.25 2.9375 1.25 2.9375 0 5 C-2.125 5.75 -2.125 5.75 -4 6 C-1.125 1.125 -1.125 1.125 0 0 Z " fill="#201310" transform="translate(176,179)"/>
<path d="M0 0 C0 0.66 0 1.32 0 2 C-5.94 2.495 -5.94 2.495 -12 3 C-7.58119757 0.05413171 -5.32232661 -0.0985616 0 0 Z " fill="#96BE50" transform="translate(140,101)"/>
<path d="M0 0 C0.99 0.495 0.99 0.495 2 1 C2 1.66 2 2.32 2 3 C2.66 3 3.32 3 4 3 C4.33 3.99 4.66 4.98 5 6 C3.35 5.67 1.7 5.34 0 5 C0 3.35 0 1.7 0 0 Z " fill="#EB8A1E" transform="translate(118,272)"/>
<path d="M0 0 C1.46726798 3.81489674 0.43336419 6.29011622 -1 10 C-1.33 10 -1.66 10 -2 10 C-2.1953125 3.9453125 -2.1953125 3.9453125 -2 2 C-1.34 1.34 -0.68 0.68 0 0 Z " fill="#5E2B04" transform="translate(105,270)"/>
<path d="M0 0 C1.65 0 3.3 0 5 0 C5 0.66 5 1.32 5 2 C2 4 2 4 -1 4 C-0.67 2.68 -0.34 1.36 0 0 Z " fill="#84B448" transform="translate(141,144)"/>
<path d="M0 0 C2.475 0.495 2.475 0.495 5 1 C4.67 2.32 4.34 3.64 4 5 C3.34 5 2.68 5 2 5 C1.34 3.35 0.68 1.7 0 0 Z " fill="#84B947" transform="translate(74,19)"/>
</svg>
